G04 #@! TF.FileFunction,Legend,Top*
%FSLAX46Y46*%
G04 Gerber Fmt 4.6, Leading zero omitted, Abs format (unit mm)*
G04 Created by KiCad (PCBNEW 4.0.3-stable) date 09/17/16 17:41:47*
%MOMM*%
%LPD*%
G01*
G04 APERTURE LIST*
%ADD10C,0.100000*%
%ADD11C,0.200000*%
%ADD12C,0.150000*%
%ADD13R,2.432000X2.127200*%
%ADD14O,2.432000X2.127200*%
%ADD15R,2.400000X2.000000*%
%ADD16R,1.650000X1.900000*%
%ADD17R,2.701240X0.900380*%
%ADD18R,2.899360X2.398980*%
%ADD19C,1.299160*%
%ADD20R,1.460000X1.050000*%
%ADD21R,2.429460X1.540460*%
%ADD22C,1.300000*%
%ADD23R,1.997660X2.200860*%
%ADD24R,2.400000X2.100000*%
G04 APERTURE END LIST*
D10*
X51450953Y-164082381D02*
X50974762Y-164082381D01*
X50974762Y-163082381D01*
X51784286Y-164082381D02*
X51784286Y-163082381D01*
X52117620Y-163796667D01*
X52450953Y-163082381D01*
X52450953Y-164082381D01*
X52831905Y-163082381D02*
X53450953Y-163082381D01*
X53117619Y-163463333D01*
X53260477Y-163463333D01*
X53355715Y-163510952D01*
X53403334Y-163558571D01*
X53450953Y-163653810D01*
X53450953Y-163891905D01*
X53403334Y-163987143D01*
X53355715Y-164034762D01*
X53260477Y-164082381D01*
X52974762Y-164082381D01*
X52879524Y-164034762D01*
X52831905Y-163987143D01*
X54308096Y-163082381D02*
X54117619Y-163082381D01*
X54022381Y-163130000D01*
X53974762Y-163177619D01*
X53879524Y-163320476D01*
X53831905Y-163510952D01*
X53831905Y-163891905D01*
X53879524Y-163987143D01*
X53927143Y-164034762D01*
X54022381Y-164082381D01*
X54212858Y-164082381D01*
X54308096Y-164034762D01*
X54355715Y-163987143D01*
X54403334Y-163891905D01*
X54403334Y-163653810D01*
X54355715Y-163558571D01*
X54308096Y-163510952D01*
X54212858Y-163463333D01*
X54022381Y-163463333D01*
X53927143Y-163510952D01*
X53879524Y-163558571D01*
X53831905Y-163653810D01*
X54736667Y-163082381D02*
X55403334Y-163082381D01*
X54974762Y-164082381D01*
X56308096Y-164082381D02*
X55736667Y-164082381D01*
X56022381Y-164082381D02*
X56022381Y-163082381D01*
X55927143Y-163225238D01*
X55831905Y-163320476D01*
X55736667Y-163368095D01*
X57403334Y-163415714D02*
X57641429Y-164082381D01*
X57879525Y-163415714D01*
X58784287Y-164082381D02*
X58212858Y-164082381D01*
X58498572Y-164082381D02*
X58498572Y-163082381D01*
X58403334Y-163225238D01*
X58308096Y-163320476D01*
X58212858Y-163368095D01*
X59212858Y-163987143D02*
X59260477Y-164034762D01*
X59212858Y-164082381D01*
X59165239Y-164034762D01*
X59212858Y-163987143D01*
X59212858Y-164082381D01*
X60212858Y-164082381D02*
X59641429Y-164082381D01*
X59927143Y-164082381D02*
X59927143Y-163082381D01*
X59831905Y-163225238D01*
X59736667Y-163320476D01*
X59641429Y-163368095D01*
D11*
X51657143Y-148598571D02*
X52014286Y-149598571D01*
X52371428Y-148598571D01*
X53157143Y-149598571D02*
X53014285Y-149527143D01*
X52942857Y-149455714D01*
X52871428Y-149312857D01*
X52871428Y-148884286D01*
X52942857Y-148741429D01*
X53014285Y-148670000D01*
X53157143Y-148598571D01*
X53371428Y-148598571D01*
X53514285Y-148670000D01*
X53585714Y-148741429D01*
X53657143Y-148884286D01*
X53657143Y-149312857D01*
X53585714Y-149455714D01*
X53514285Y-149527143D01*
X53371428Y-149598571D01*
X53157143Y-149598571D01*
X54514286Y-149598571D02*
X54371428Y-149527143D01*
X54300000Y-149384286D01*
X54300000Y-148098571D01*
X55085714Y-149598571D02*
X55085714Y-148598571D01*
X55085714Y-148098571D02*
X55014285Y-148170000D01*
X55085714Y-148241429D01*
X55157142Y-148170000D01*
X55085714Y-148098571D01*
X55085714Y-148241429D01*
X56442857Y-148598571D02*
X56442857Y-149598571D01*
X55800000Y-148598571D02*
X55800000Y-149384286D01*
X55871428Y-149527143D01*
X56014286Y-149598571D01*
X56228571Y-149598571D01*
X56371428Y-149527143D01*
X56442857Y-149455714D01*
X57157143Y-149598571D02*
X57157143Y-148598571D01*
X57157143Y-148741429D02*
X57228571Y-148670000D01*
X57371429Y-148598571D01*
X57585714Y-148598571D01*
X57728571Y-148670000D01*
X57800000Y-148812857D01*
X57800000Y-149598571D01*
X57800000Y-148812857D02*
X57871429Y-148670000D01*
X58014286Y-148598571D01*
X58228571Y-148598571D01*
X58371429Y-148670000D01*
X58442857Y-148812857D01*
X58442857Y-149598571D01*
X59157143Y-149455714D02*
X59228571Y-149527143D01*
X59157143Y-149598571D01*
X59085714Y-149527143D01*
X59157143Y-149455714D01*
X59157143Y-149598571D01*
X60514286Y-149527143D02*
X60371429Y-149598571D01*
X60085715Y-149598571D01*
X59942857Y-149527143D01*
X59871429Y-149455714D01*
X59800000Y-149312857D01*
X59800000Y-148884286D01*
X59871429Y-148741429D01*
X59942857Y-148670000D01*
X60085715Y-148598571D01*
X60371429Y-148598571D01*
X60514286Y-148670000D01*
X61371429Y-149598571D02*
X61228571Y-149527143D01*
X61157143Y-149455714D01*
X61085714Y-149312857D01*
X61085714Y-148884286D01*
X61157143Y-148741429D01*
X61228571Y-148670000D01*
X61371429Y-148598571D01*
X61585714Y-148598571D01*
X61728571Y-148670000D01*
X61800000Y-148741429D01*
X61871429Y-148884286D01*
X61871429Y-149312857D01*
X61800000Y-149455714D01*
X61728571Y-149527143D01*
X61585714Y-149598571D01*
X61371429Y-149598571D01*
X62514286Y-149598571D02*
X62514286Y-148598571D01*
X62514286Y-148741429D02*
X62585714Y-148670000D01*
X62728572Y-148598571D01*
X62942857Y-148598571D01*
X63085714Y-148670000D01*
X63157143Y-148812857D01*
X63157143Y-149598571D01*
X63157143Y-148812857D02*
X63228572Y-148670000D01*
X63371429Y-148598571D01*
X63585714Y-148598571D01*
X63728572Y-148670000D01*
X63800000Y-148812857D01*
X63800000Y-149598571D01*
D10*
X74026190Y-154102380D02*
X74026190Y-154340475D01*
X74264286Y-154364285D01*
X74240476Y-154340475D01*
X74216667Y-154292856D01*
X74216667Y-154173809D01*
X74240476Y-154126190D01*
X74264286Y-154102380D01*
X74311905Y-154078571D01*
X74430952Y-154078571D01*
X74478571Y-154102380D01*
X74502381Y-154126190D01*
X74526190Y-154173809D01*
X74526190Y-154292856D01*
X74502381Y-154340475D01*
X74478571Y-154364285D01*
X74478571Y-153864285D02*
X74502381Y-153840476D01*
X74526190Y-153864285D01*
X74502381Y-153888095D01*
X74478571Y-153864285D01*
X74526190Y-153864285D01*
X74026190Y-153530952D02*
X74026190Y-153483333D01*
X74050000Y-153435714D01*
X74073810Y-153411905D01*
X74121429Y-153388095D01*
X74216667Y-153364286D01*
X74335714Y-153364286D01*
X74430952Y-153388095D01*
X74478571Y-153411905D01*
X74502381Y-153435714D01*
X74526190Y-153483333D01*
X74526190Y-153530952D01*
X74502381Y-153578571D01*
X74478571Y-153602381D01*
X74430952Y-153626190D01*
X74335714Y-153650000D01*
X74216667Y-153650000D01*
X74121429Y-153626190D01*
X74073810Y-153602381D01*
X74050000Y-153578571D01*
X74026190Y-153530952D01*
X74026190Y-153221429D02*
X74526190Y-153054762D01*
X74026190Y-152888096D01*
X74050000Y-156580953D02*
X74026190Y-156628572D01*
X74026190Y-156700000D01*
X74050000Y-156771429D01*
X74097619Y-156819048D01*
X74145238Y-156842857D01*
X74240476Y-156866667D01*
X74311905Y-156866667D01*
X74407143Y-156842857D01*
X74454762Y-156819048D01*
X74502381Y-156771429D01*
X74526190Y-156700000D01*
X74526190Y-156652381D01*
X74502381Y-156580953D01*
X74478571Y-156557143D01*
X74311905Y-156557143D01*
X74311905Y-156652381D01*
X74526190Y-156342857D02*
X74026190Y-156342857D01*
X74526190Y-156057143D01*
X74026190Y-156057143D01*
X74526190Y-155819047D02*
X74026190Y-155819047D01*
X74026190Y-155700000D01*
X74050000Y-155628571D01*
X74097619Y-155580952D01*
X74145238Y-155557143D01*
X74240476Y-155533333D01*
X74311905Y-155533333D01*
X74407143Y-155557143D01*
X74454762Y-155580952D01*
X74502381Y-155628571D01*
X74526190Y-155700000D01*
X74526190Y-155819047D01*
X74026190Y-159488094D02*
X74026190Y-159178571D01*
X74216667Y-159345237D01*
X74216667Y-159273809D01*
X74240476Y-159226190D01*
X74264286Y-159202380D01*
X74311905Y-159178571D01*
X74430952Y-159178571D01*
X74478571Y-159202380D01*
X74502381Y-159226190D01*
X74526190Y-159273809D01*
X74526190Y-159416666D01*
X74502381Y-159464285D01*
X74478571Y-159488094D01*
X74478571Y-158964285D02*
X74502381Y-158940476D01*
X74526190Y-158964285D01*
X74502381Y-158988095D01*
X74478571Y-158964285D01*
X74526190Y-158964285D01*
X74026190Y-158773809D02*
X74026190Y-158464286D01*
X74216667Y-158630952D01*
X74216667Y-158559524D01*
X74240476Y-158511905D01*
X74264286Y-158488095D01*
X74311905Y-158464286D01*
X74430952Y-158464286D01*
X74478571Y-158488095D01*
X74502381Y-158511905D01*
X74526190Y-158559524D01*
X74526190Y-158702381D01*
X74502381Y-158750000D01*
X74478571Y-158773809D01*
X74026190Y-158321429D02*
X74526190Y-158154762D01*
X74026190Y-157988096D01*
D12*
X70830000Y-154920000D02*
X70830000Y-160000000D01*
X70830000Y-160000000D02*
X73370000Y-160000000D01*
X73370000Y-160000000D02*
X73370000Y-154920000D01*
X73650000Y-152100000D02*
X73650000Y-153650000D01*
X73370000Y-154920000D02*
X70830000Y-154920000D01*
X70550000Y-153650000D02*
X70550000Y-152100000D01*
X70550000Y-152100000D02*
X73650000Y-152100000D01*
X66500000Y-150725000D02*
X64500000Y-150725000D01*
X64500000Y-152775000D02*
X66500000Y-152775000D01*
X64500000Y-161675000D02*
X66500000Y-161675000D01*
X66500000Y-159625000D02*
X64500000Y-159625000D01*
X69850000Y-156700000D02*
X69850000Y-155700000D01*
X68150000Y-155700000D02*
X68150000Y-156700000D01*
X51600820Y-152349360D02*
X51600820Y-160050640D01*
X50600060Y-152349360D02*
X50600060Y-160050640D01*
X50600060Y-160050640D02*
X59799940Y-160050640D01*
X59799940Y-160050640D02*
X59799940Y-152349360D01*
X59799940Y-152349360D02*
X50600060Y-152349360D01*
X65300000Y-154500000D02*
G75*
G03X65300000Y-154500000I-100000J0D01*
G01*
X65750000Y-154750000D02*
X65250000Y-154750000D01*
X65750000Y-157650000D02*
X65750000Y-154750000D01*
X65250000Y-157650000D02*
X65750000Y-157650000D01*
X65250000Y-154750000D02*
X65250000Y-157650000D01*
X69950000Y-164550000D02*
X73550000Y-164550000D01*
X69950000Y-162450000D02*
X73550000Y-162450000D01*
X72000000Y-163200000D02*
X72000000Y-163800000D01*
X72000000Y-163800000D02*
X71700000Y-163500000D01*
X71700000Y-163500000D02*
X71900000Y-163300000D01*
X71900000Y-163300000D02*
X71900000Y-163550000D01*
X71900000Y-163550000D02*
X71850000Y-163500000D01*
X71600000Y-163000000D02*
X71600000Y-164000000D01*
X72100000Y-163500000D02*
X72600000Y-163500000D01*
X71600000Y-163500000D02*
X72100000Y-163000000D01*
X72100000Y-163000000D02*
X72100000Y-164000000D01*
X72100000Y-164000000D02*
X71600000Y-163500000D01*
X64510000Y-162425000D02*
X66510000Y-162425000D01*
X66510000Y-164575000D02*
X64510000Y-164575000D01*
X70316667Y-153386666D02*
X69616667Y-153386666D01*
X69616667Y-153120000D01*
X69650000Y-153053333D01*
X69683333Y-153020000D01*
X69750000Y-152986666D01*
X69850000Y-152986666D01*
X69916667Y-153020000D01*
X69950000Y-153053333D01*
X69983333Y-153120000D01*
X69983333Y-153386666D01*
X69683333Y-152720000D02*
X69650000Y-152686666D01*
X69616667Y-152620000D01*
X69616667Y-152453333D01*
X69650000Y-152386666D01*
X69683333Y-152353333D01*
X69750000Y-152320000D01*
X69816667Y-152320000D01*
X69916667Y-152353333D01*
X70316667Y-152753333D01*
X70316667Y-152320000D01*
X61850000Y-151846666D02*
X61883333Y-151880000D01*
X61916667Y-151980000D01*
X61916667Y-152046666D01*
X61883333Y-152146666D01*
X61816667Y-152213333D01*
X61750000Y-152246666D01*
X61616667Y-152280000D01*
X61516667Y-152280000D01*
X61383333Y-152246666D01*
X61316667Y-152213333D01*
X61250000Y-152146666D01*
X61216667Y-152046666D01*
X61216667Y-151980000D01*
X61250000Y-151880000D01*
X61283333Y-151846666D01*
X61916667Y-151180000D02*
X61916667Y-151580000D01*
X61916667Y-151380000D02*
X61216667Y-151380000D01*
X61316667Y-151446666D01*
X61383333Y-151513333D01*
X61416667Y-151580000D01*
X61850000Y-160766666D02*
X61883333Y-160800000D01*
X61916667Y-160900000D01*
X61916667Y-160966666D01*
X61883333Y-161066666D01*
X61816667Y-161133333D01*
X61750000Y-161166666D01*
X61616667Y-161200000D01*
X61516667Y-161200000D01*
X61383333Y-161166666D01*
X61316667Y-161133333D01*
X61250000Y-161066666D01*
X61216667Y-160966666D01*
X61216667Y-160900000D01*
X61250000Y-160800000D01*
X61283333Y-160766666D01*
X61283333Y-160500000D02*
X61250000Y-160466666D01*
X61216667Y-160400000D01*
X61216667Y-160233333D01*
X61250000Y-160166666D01*
X61283333Y-160133333D01*
X61350000Y-160100000D01*
X61416667Y-160100000D01*
X61516667Y-160133333D01*
X61916667Y-160533333D01*
X61916667Y-160100000D01*
X68883333Y-159336667D02*
X68550000Y-159336667D01*
X68550000Y-158636667D01*
X69483333Y-159336667D02*
X69083333Y-159336667D01*
X69283333Y-159336667D02*
X69283333Y-158636667D01*
X69216667Y-158736667D01*
X69150000Y-158803333D01*
X69083333Y-158836667D01*
X53613334Y-158716667D02*
X53613334Y-158016667D01*
X53880000Y-158016667D01*
X53946667Y-158050000D01*
X53980000Y-158083333D01*
X54013334Y-158150000D01*
X54013334Y-158250000D01*
X53980000Y-158316667D01*
X53946667Y-158350000D01*
X53880000Y-158383333D01*
X53613334Y-158383333D01*
X54680000Y-158716667D02*
X54280000Y-158716667D01*
X54480000Y-158716667D02*
X54480000Y-158016667D01*
X54413334Y-158116667D01*
X54346667Y-158183333D01*
X54280000Y-158216667D01*
X64966667Y-158116667D02*
X64966667Y-158683333D01*
X65000000Y-158750000D01*
X65033333Y-158783333D01*
X65100000Y-158816667D01*
X65233333Y-158816667D01*
X65300000Y-158783333D01*
X65333333Y-158750000D01*
X65366667Y-158683333D01*
X65366667Y-158116667D01*
X66066666Y-158816667D02*
X65666666Y-158816667D01*
X65866666Y-158816667D02*
X65866666Y-158116667D01*
X65800000Y-158216667D01*
X65733333Y-158283333D01*
X65666666Y-158316667D01*
X61766667Y-158760000D02*
X61533334Y-158760000D01*
X61533334Y-159126667D02*
X61533334Y-158426667D01*
X61866667Y-158426667D01*
X62500000Y-159126667D02*
X62100000Y-159126667D01*
X62300000Y-159126667D02*
X62300000Y-158426667D01*
X62233334Y-158526667D01*
X62166667Y-158593333D01*
X62100000Y-158626667D01*
X71583334Y-162016667D02*
X71583334Y-161316667D01*
X71750000Y-161316667D01*
X71850000Y-161350000D01*
X71916667Y-161416667D01*
X71950000Y-161483333D01*
X71983334Y-161616667D01*
X71983334Y-161716667D01*
X71950000Y-161850000D01*
X71916667Y-161916667D01*
X71850000Y-161983333D01*
X71750000Y-162016667D01*
X71583334Y-162016667D01*
X72650000Y-162016667D02*
X72250000Y-162016667D01*
X72450000Y-162016667D02*
X72450000Y-161316667D01*
X72383334Y-161416667D01*
X72316667Y-161483333D01*
X72250000Y-161516667D01*
X61916667Y-163616666D02*
X61583333Y-163850000D01*
X61916667Y-164016666D02*
X61216667Y-164016666D01*
X61216667Y-163750000D01*
X61250000Y-163683333D01*
X61283333Y-163650000D01*
X61350000Y-163616666D01*
X61450000Y-163616666D01*
X61516667Y-163650000D01*
X61550000Y-163683333D01*
X61583333Y-163750000D01*
X61583333Y-164016666D01*
X61916667Y-162950000D02*
X61916667Y-163350000D01*
X61916667Y-163150000D02*
X61216667Y-163150000D01*
X61316667Y-163216666D01*
X61383333Y-163283333D01*
X61416667Y-163350000D01*
%LPC*%
D13*
X72100000Y-153650000D03*
D14*
X72100000Y-156190000D03*
X72100000Y-158730000D03*
D15*
X63500000Y-151750000D03*
X67500000Y-151750000D03*
X67500000Y-160650000D03*
X63500000Y-160650000D03*
D16*
X69000000Y-154950000D03*
X69000000Y-157450000D03*
D17*
X58649320Y-154599800D03*
X58649320Y-155399900D03*
X58649320Y-156200000D03*
X58649320Y-157000100D03*
X58649320Y-157800200D03*
D18*
X58550260Y-151749920D03*
X53051160Y-151749920D03*
X58550260Y-160650080D03*
X53051160Y-160650080D03*
D19*
X56050900Y-154000360D03*
X56050900Y-158399640D03*
D20*
X64400000Y-155250000D03*
X64400000Y-156200000D03*
X64400000Y-157150000D03*
X66600000Y-157150000D03*
X66600000Y-155250000D03*
D21*
X62000000Y-154996040D03*
X62000000Y-157403960D03*
D22*
X55230000Y-152950000D03*
X55230000Y-160950000D03*
D23*
X73519860Y-163500000D03*
X70680140Y-163500000D03*
D24*
X67510000Y-163500000D03*
X63510000Y-163500000D03*
M02*
