G04 #@! TF.FileFunction,Copper,L1,Top,Signal*
%FSLAX46Y46*%
G04 Gerber Fmt 4.6, Leading zero omitted, Abs format (unit mm)*
G04 Created by KiCad (PCBNEW 4.0.4-stable) date 10/26/16 06:20:46*
%MOMM*%
%LPD*%
G01*
G04 APERTURE LIST*
%ADD10C,0.100000*%
%ADD11C,2.235200*%
%ADD12R,1.825000X2.200000*%
%ADD13R,2.301240X0.500380*%
%ADD14R,2.499360X1.998980*%
%ADD15R,1.060000X0.650000*%
%ADD16R,1.800860X1.597660*%
%ADD17R,1.600000X1.000000*%
%ADD18R,1.000000X1.600000*%
%ADD19R,0.900000X1.700000*%
%ADD20R,2.032000X2.032000*%
%ADD21O,2.032000X2.032000*%
%ADD22C,0.889000*%
%ADD23C,0.254000*%
%ADD24C,0.152400*%
G04 APERTURE END LIST*
D10*
D11*
X63420000Y-151800000D03*
D12*
X67552500Y-153530000D03*
X70127500Y-153530000D03*
D13*
X58449320Y-154649800D03*
X58449320Y-155449900D03*
X58449320Y-156250000D03*
X58449320Y-157050100D03*
X58449320Y-157850200D03*
D14*
X58350260Y-151799920D03*
X52851160Y-151799920D03*
X58350260Y-160700080D03*
X52851160Y-160700080D03*
D15*
X63620000Y-154300000D03*
X63620000Y-155250000D03*
X63620000Y-156200000D03*
X65820000Y-156200000D03*
X65820000Y-154300000D03*
D16*
X66680000Y-158010140D03*
X66680000Y-160849860D03*
D17*
X61460000Y-153030000D03*
X61460000Y-156030000D03*
D18*
X64500000Y-158000000D03*
X61500000Y-158000000D03*
D19*
X64450000Y-160800000D03*
X61550000Y-160800000D03*
D20*
X69750000Y-160400000D03*
D21*
X69750000Y-157860000D03*
D22*
X52500000Y-157500000D03*
X55000000Y-157500000D03*
X53750000Y-157500000D03*
X55000000Y-156250000D03*
X53750000Y-156260000D03*
X52500000Y-156260000D03*
X53750000Y-155000000D03*
X55000000Y-155000000D03*
X52500000Y-155000000D03*
D23*
X63420000Y-151800000D02*
X62090000Y-151800000D01*
X61460000Y-152430000D02*
X61460000Y-153030000D01*
X62090000Y-151800000D02*
X61460000Y-152430000D01*
X64540000Y-155870000D02*
X64210000Y-156200000D01*
X64210000Y-156200000D02*
X63620000Y-156200000D01*
X63620000Y-154300000D02*
X64220000Y-154300000D01*
X64540000Y-154620000D02*
X64540000Y-155870000D01*
X64540000Y-155870000D02*
X64540000Y-155880000D01*
X64220000Y-154300000D02*
X64540000Y-154620000D01*
X63620000Y-154300000D02*
X61890000Y-154300000D01*
X61890000Y-154300000D02*
X61460000Y-153870000D01*
X58449320Y-154649800D02*
X60680200Y-154649800D01*
X61460000Y-153870000D02*
X61460000Y-153030000D01*
X60680200Y-154649800D02*
X61460000Y-153870000D01*
X53750000Y-157500000D02*
X55000000Y-157500000D01*
X55000000Y-157500000D02*
X55000000Y-156250000D01*
X52500000Y-157500000D02*
X53750000Y-157500000D01*
X52500000Y-156260000D02*
X53750000Y-156260000D01*
X54990000Y-156260000D02*
X53750000Y-156260000D01*
X54990000Y-156260000D02*
X55000000Y-156250000D01*
X52500000Y-155000000D02*
X53750000Y-155000000D01*
X55000000Y-155000000D02*
X55000000Y-156250000D01*
X53750000Y-155000000D02*
X55000000Y-155000000D01*
X55000000Y-156250000D02*
X51400000Y-156250000D01*
X52851160Y-151799920D02*
X51400000Y-153251080D01*
X51400000Y-159248920D02*
X52851160Y-160700080D01*
X51400000Y-153251080D02*
X51400000Y-156250000D01*
X51400000Y-156250000D02*
X51400000Y-159248920D01*
X61500000Y-158000000D02*
X61500000Y-156070000D01*
X61500000Y-156070000D02*
X61460000Y-156030000D01*
X61550000Y-160800000D02*
X61550000Y-158050000D01*
X61550000Y-158050000D02*
X61500000Y-158000000D01*
X61550000Y-160800000D02*
X61450080Y-160700080D01*
X61450080Y-160700080D02*
X58350260Y-160700080D01*
X58350260Y-160700080D02*
X58449320Y-160601020D01*
X58449320Y-160601020D02*
X58449320Y-157850200D01*
X58350260Y-160700080D02*
X52851160Y-160700080D01*
X52851160Y-151799920D02*
X58350260Y-151799920D01*
X63620000Y-155250000D02*
X62970000Y-155250000D01*
X62970000Y-155250000D02*
X62190000Y-156030000D01*
X62190000Y-156030000D02*
X61460000Y-156030000D01*
X70127500Y-157482500D02*
X70127500Y-153530000D01*
X69750000Y-157860000D02*
X70127500Y-157482500D01*
X65820000Y-156200000D02*
X65380000Y-156200000D01*
X65380000Y-156200000D02*
X64500000Y-157080000D01*
X64500000Y-157080000D02*
X64500000Y-158000000D01*
X66680000Y-158010140D02*
X69599860Y-158010140D01*
X69599860Y-158010140D02*
X69750000Y-157860000D01*
X64500000Y-158000000D02*
X66669860Y-158000000D01*
X66669860Y-158000000D02*
X66680000Y-158010140D01*
D24*
X65820000Y-154300000D02*
X66782500Y-154300000D01*
X66782500Y-154300000D02*
X67552500Y-153530000D01*
X66680000Y-160849860D02*
X64499860Y-160849860D01*
X64499860Y-160849860D02*
X64450000Y-160800000D01*
D23*
G36*
X63436485Y-150694210D02*
X64001868Y-150859476D01*
X64009577Y-150862928D01*
X64016065Y-150868329D01*
X64380212Y-151267156D01*
X64384534Y-151273205D01*
X64387303Y-151280113D01*
X64517566Y-151766425D01*
X64518617Y-151773640D01*
X64517967Y-151780901D01*
X64078388Y-153881113D01*
X64076369Y-153894050D01*
X64073675Y-153920067D01*
X64073000Y-153933148D01*
X64073000Y-154530491D01*
X64071798Y-154536536D01*
X63090000Y-154536536D01*
X63055647Y-154543000D01*
X63023508Y-154543000D01*
X63000394Y-154545121D01*
X62954936Y-154553535D01*
X62932592Y-154559828D01*
X62387374Y-154768829D01*
X62364837Y-154773000D01*
X57439509Y-154773000D01*
X57429075Y-154770925D01*
X57427000Y-154760491D01*
X57427000Y-154339509D01*
X57429075Y-154329075D01*
X57439509Y-154327000D01*
X60487612Y-154327000D01*
X60507518Y-154325430D01*
X60546837Y-154319190D01*
X60584691Y-154306865D01*
X60620146Y-154288759D01*
X60652324Y-154265321D01*
X60680432Y-154237128D01*
X60703775Y-154204875D01*
X60721773Y-154169364D01*
X60733982Y-154131474D01*
X60740102Y-154092137D01*
X60741611Y-154072226D01*
X60737212Y-152629237D01*
X60738490Y-152620458D01*
X60744436Y-152613881D01*
X62913908Y-150830092D01*
X62919529Y-150826406D01*
X62925817Y-150824003D01*
X63419882Y-150693986D01*
X63428203Y-150692967D01*
X63436485Y-150694210D01*
X63436485Y-150694210D01*
G37*
X63436485Y-150694210D02*
X64001868Y-150859476D01*
X64009577Y-150862928D01*
X64016065Y-150868329D01*
X64380212Y-151267156D01*
X64384534Y-151273205D01*
X64387303Y-151280113D01*
X64517566Y-151766425D01*
X64518617Y-151773640D01*
X64517967Y-151780901D01*
X64078388Y-153881113D01*
X64076369Y-153894050D01*
X64073675Y-153920067D01*
X64073000Y-153933148D01*
X64073000Y-154530491D01*
X64071798Y-154536536D01*
X63090000Y-154536536D01*
X63055647Y-154543000D01*
X63023508Y-154543000D01*
X63000394Y-154545121D01*
X62954936Y-154553535D01*
X62932592Y-154559828D01*
X62387374Y-154768829D01*
X62364837Y-154773000D01*
X57439509Y-154773000D01*
X57429075Y-154770925D01*
X57427000Y-154760491D01*
X57427000Y-154339509D01*
X57429075Y-154329075D01*
X57439509Y-154327000D01*
X60487612Y-154327000D01*
X60507518Y-154325430D01*
X60546837Y-154319190D01*
X60584691Y-154306865D01*
X60620146Y-154288759D01*
X60652324Y-154265321D01*
X60680432Y-154237128D01*
X60703775Y-154204875D01*
X60721773Y-154169364D01*
X60733982Y-154131474D01*
X60740102Y-154092137D01*
X60741611Y-154072226D01*
X60737212Y-152629237D01*
X60738490Y-152620458D01*
X60744436Y-152613881D01*
X62913908Y-150830092D01*
X62919529Y-150826406D01*
X62925817Y-150824003D01*
X63419882Y-150693986D01*
X63428203Y-150692967D01*
X63436485Y-150694210D01*
G36*
X59873000Y-153360491D02*
X59870925Y-153370925D01*
X59860491Y-153373000D01*
X56627000Y-153373000D01*
X56602224Y-153375440D01*
X56553623Y-153385107D01*
X56507842Y-153404070D01*
X56466640Y-153431600D01*
X56436700Y-153461540D01*
X56322000Y-153346639D01*
X56016837Y-153219925D01*
X55686412Y-153219636D01*
X55381029Y-153345818D01*
X55147179Y-153579260D01*
X55020465Y-153884423D01*
X55020176Y-154214848D01*
X55146358Y-154520231D01*
X55379800Y-154754081D01*
X55684963Y-154880795D01*
X56015388Y-154881084D01*
X56320771Y-154754902D01*
X56373000Y-154702764D01*
X56373000Y-157473000D01*
X56375440Y-157497776D01*
X56385107Y-157546377D01*
X56404070Y-157592158D01*
X56431600Y-157633360D01*
X56466640Y-157668400D01*
X56507842Y-157695930D01*
X56553623Y-157714893D01*
X56602224Y-157724560D01*
X56627000Y-157727000D01*
X59873000Y-157727000D01*
X59897776Y-157724560D01*
X59946377Y-157714893D01*
X59992158Y-157695930D01*
X60033360Y-157668400D01*
X60068400Y-157633360D01*
X60095930Y-157592158D01*
X60114893Y-157546377D01*
X60124560Y-157497776D01*
X60127000Y-157473000D01*
X60127000Y-155639509D01*
X60129075Y-155629075D01*
X60139509Y-155627000D01*
X62160491Y-155627000D01*
X62170925Y-155629075D01*
X62173000Y-155639509D01*
X62173000Y-162044000D01*
X50844911Y-162044000D01*
X50671777Y-162009562D01*
X50563073Y-161936928D01*
X50490438Y-161828224D01*
X50456000Y-161655089D01*
X50456000Y-158614128D01*
X55020176Y-158614128D01*
X55146358Y-158919511D01*
X55379800Y-159153361D01*
X55684963Y-159280075D01*
X56015388Y-159280364D01*
X56320771Y-159154182D01*
X56554621Y-158920740D01*
X56681335Y-158615577D01*
X56681624Y-158285152D01*
X56555442Y-157979769D01*
X56322000Y-157745919D01*
X56016837Y-157619205D01*
X55686412Y-157618916D01*
X55381029Y-157745098D01*
X55147179Y-157978540D01*
X55020465Y-158283703D01*
X55020176Y-158614128D01*
X50456000Y-158614128D01*
X50456000Y-150844911D01*
X50490438Y-150671776D01*
X50563073Y-150563072D01*
X50671777Y-150490438D01*
X50844911Y-150456000D01*
X59873000Y-150456000D01*
X59873000Y-153360491D01*
X59873000Y-153360491D01*
G37*
X59873000Y-153360491D02*
X59870925Y-153370925D01*
X59860491Y-153373000D01*
X56627000Y-153373000D01*
X56602224Y-153375440D01*
X56553623Y-153385107D01*
X56507842Y-153404070D01*
X56466640Y-153431600D01*
X56436700Y-153461540D01*
X56322000Y-153346639D01*
X56016837Y-153219925D01*
X55686412Y-153219636D01*
X55381029Y-153345818D01*
X55147179Y-153579260D01*
X55020465Y-153884423D01*
X55020176Y-154214848D01*
X55146358Y-154520231D01*
X55379800Y-154754081D01*
X55684963Y-154880795D01*
X56015388Y-154881084D01*
X56320771Y-154754902D01*
X56373000Y-154702764D01*
X56373000Y-157473000D01*
X56375440Y-157497776D01*
X56385107Y-157546377D01*
X56404070Y-157592158D01*
X56431600Y-157633360D01*
X56466640Y-157668400D01*
X56507842Y-157695930D01*
X56553623Y-157714893D01*
X56602224Y-157724560D01*
X56627000Y-157727000D01*
X59873000Y-157727000D01*
X59897776Y-157724560D01*
X59946377Y-157714893D01*
X59992158Y-157695930D01*
X60033360Y-157668400D01*
X60068400Y-157633360D01*
X60095930Y-157592158D01*
X60114893Y-157546377D01*
X60124560Y-157497776D01*
X60127000Y-157473000D01*
X60127000Y-155639509D01*
X60129075Y-155629075D01*
X60139509Y-155627000D01*
X62160491Y-155627000D01*
X62170925Y-155629075D01*
X62173000Y-155639509D01*
X62173000Y-162044000D01*
X50844911Y-162044000D01*
X50671777Y-162009562D01*
X50563073Y-161936928D01*
X50490438Y-161828224D01*
X50456000Y-161655089D01*
X50456000Y-158614128D01*
X55020176Y-158614128D01*
X55146358Y-158919511D01*
X55379800Y-159153361D01*
X55684963Y-159280075D01*
X56015388Y-159280364D01*
X56320771Y-159154182D01*
X56554621Y-158920740D01*
X56681335Y-158615577D01*
X56681624Y-158285152D01*
X56555442Y-157979769D01*
X56322000Y-157745919D01*
X56016837Y-157619205D01*
X55686412Y-157618916D01*
X55381029Y-157745098D01*
X55147179Y-157978540D01*
X55020465Y-158283703D01*
X55020176Y-158614128D01*
X50456000Y-158614128D01*
X50456000Y-150844911D01*
X50490438Y-150671776D01*
X50563073Y-150563072D01*
X50671777Y-150490438D01*
X50844911Y-150456000D01*
X59873000Y-150456000D01*
X59873000Y-153360491D01*
G36*
X70920925Y-152479075D02*
X70923000Y-152489509D01*
X70923000Y-158810491D01*
X70920925Y-158820925D01*
X70910491Y-158823000D01*
X64139509Y-158823000D01*
X64129075Y-158820925D01*
X64127000Y-158810491D01*
X64127000Y-157213345D01*
X64129192Y-157202037D01*
X64135452Y-157192363D01*
X65298156Y-155983150D01*
X65304533Y-155978090D01*
X65312606Y-155977000D01*
X69073000Y-155977000D01*
X69097776Y-155974560D01*
X69146377Y-155964893D01*
X69192158Y-155945930D01*
X69233360Y-155918400D01*
X69268400Y-155883360D01*
X69295930Y-155842158D01*
X69314893Y-155796377D01*
X69324560Y-155747776D01*
X69327000Y-155723000D01*
X69327000Y-152489509D01*
X69329075Y-152479075D01*
X69339509Y-152477000D01*
X70910491Y-152477000D01*
X70920925Y-152479075D01*
X70920925Y-152479075D01*
G37*
X70920925Y-152479075D02*
X70923000Y-152489509D01*
X70923000Y-158810491D01*
X70920925Y-158820925D01*
X70910491Y-158823000D01*
X64139509Y-158823000D01*
X64129075Y-158820925D01*
X64127000Y-158810491D01*
X64127000Y-157213345D01*
X64129192Y-157202037D01*
X64135452Y-157192363D01*
X65298156Y-155983150D01*
X65304533Y-155978090D01*
X65312606Y-155977000D01*
X69073000Y-155977000D01*
X69097776Y-155974560D01*
X69146377Y-155964893D01*
X69192158Y-155945930D01*
X69233360Y-155918400D01*
X69268400Y-155883360D01*
X69295930Y-155842158D01*
X69314893Y-155796377D01*
X69324560Y-155747776D01*
X69327000Y-155723000D01*
X69327000Y-152489509D01*
X69329075Y-152479075D01*
X69339509Y-152477000D01*
X70910491Y-152477000D01*
X70920925Y-152479075D01*
G36*
X68340925Y-152479075D02*
X68343000Y-152489509D01*
X68343000Y-154510491D01*
X68340925Y-154520925D01*
X68330491Y-154523000D01*
X65359509Y-154523000D01*
X65349075Y-154520925D01*
X65347000Y-154510491D01*
X65347000Y-154099200D01*
X65348949Y-154088480D01*
X65354543Y-154079136D01*
X66751646Y-152483794D01*
X66758146Y-152478211D01*
X66766624Y-152477000D01*
X68330491Y-152477000D01*
X68340925Y-152479075D01*
X68340925Y-152479075D01*
G37*
X68340925Y-152479075D02*
X68343000Y-152489509D01*
X68343000Y-154510491D01*
X68340925Y-154520925D01*
X68330491Y-154523000D01*
X65359509Y-154523000D01*
X65349075Y-154520925D01*
X65347000Y-154510491D01*
X65347000Y-154099200D01*
X65348949Y-154088480D01*
X65354543Y-154079136D01*
X66751646Y-152483794D01*
X66758146Y-152478211D01*
X66766624Y-152477000D01*
X68330491Y-152477000D01*
X68340925Y-152479075D01*
M02*
