G04 #@! TF.FileFunction,Legend,Bot*
%FSLAX46Y46*%
G04 Gerber Fmt 4.6, Leading zero omitted, Abs format (unit mm)*
G04 Created by KiCad (PCBNEW 4.0.3-stable) date 10/06/16 09:44:46*
%MOMM*%
%LPD*%
G01*
G04 APERTURE LIST*
%ADD10C,0.100000*%
%ADD11C,0.200000*%
%ADD12C,2.336800*%
%ADD13C,1.000760*%
%ADD14R,2.133600X2.133600*%
%ADD15O,2.133600X2.133600*%
G04 APERTURE END LIST*
D10*
D11*
X63442857Y-160558571D02*
X63085714Y-161558571D01*
X62728572Y-160558571D01*
X61942857Y-161558571D02*
X62085715Y-161487143D01*
X62157143Y-161415714D01*
X62228572Y-161272857D01*
X62228572Y-160844286D01*
X62157143Y-160701429D01*
X62085715Y-160630000D01*
X61942857Y-160558571D01*
X61728572Y-160558571D01*
X61585715Y-160630000D01*
X61514286Y-160701429D01*
X61442857Y-160844286D01*
X61442857Y-161272857D01*
X61514286Y-161415714D01*
X61585715Y-161487143D01*
X61728572Y-161558571D01*
X61942857Y-161558571D01*
X60585714Y-161558571D02*
X60728572Y-161487143D01*
X60800000Y-161344286D01*
X60800000Y-160058571D01*
X60014286Y-161558571D02*
X60014286Y-160558571D01*
X60014286Y-160058571D02*
X60085715Y-160130000D01*
X60014286Y-160201429D01*
X59942858Y-160130000D01*
X60014286Y-160058571D01*
X60014286Y-160201429D01*
X58657143Y-160558571D02*
X58657143Y-161558571D01*
X59300000Y-160558571D02*
X59300000Y-161344286D01*
X59228572Y-161487143D01*
X59085714Y-161558571D01*
X58871429Y-161558571D01*
X58728572Y-161487143D01*
X58657143Y-161415714D01*
X57942857Y-161558571D02*
X57942857Y-160558571D01*
X57942857Y-160701429D02*
X57871429Y-160630000D01*
X57728571Y-160558571D01*
X57514286Y-160558571D01*
X57371429Y-160630000D01*
X57300000Y-160772857D01*
X57300000Y-161558571D01*
X57300000Y-160772857D02*
X57228571Y-160630000D01*
X57085714Y-160558571D01*
X56871429Y-160558571D01*
X56728571Y-160630000D01*
X56657143Y-160772857D01*
X56657143Y-161558571D01*
X55942857Y-161415714D02*
X55871429Y-161487143D01*
X55942857Y-161558571D01*
X56014286Y-161487143D01*
X55942857Y-161415714D01*
X55942857Y-161558571D01*
X54585714Y-161487143D02*
X54728571Y-161558571D01*
X55014285Y-161558571D01*
X55157143Y-161487143D01*
X55228571Y-161415714D01*
X55300000Y-161272857D01*
X55300000Y-160844286D01*
X55228571Y-160701429D01*
X55157143Y-160630000D01*
X55014285Y-160558571D01*
X54728571Y-160558571D01*
X54585714Y-160630000D01*
X53728571Y-161558571D02*
X53871429Y-161487143D01*
X53942857Y-161415714D01*
X54014286Y-161272857D01*
X54014286Y-160844286D01*
X53942857Y-160701429D01*
X53871429Y-160630000D01*
X53728571Y-160558571D01*
X53514286Y-160558571D01*
X53371429Y-160630000D01*
X53300000Y-160701429D01*
X53228571Y-160844286D01*
X53228571Y-161272857D01*
X53300000Y-161415714D01*
X53371429Y-161487143D01*
X53514286Y-161558571D01*
X53728571Y-161558571D01*
X52585714Y-161558571D02*
X52585714Y-160558571D01*
X52585714Y-160701429D02*
X52514286Y-160630000D01*
X52371428Y-160558571D01*
X52157143Y-160558571D01*
X52014286Y-160630000D01*
X51942857Y-160772857D01*
X51942857Y-161558571D01*
X51942857Y-160772857D02*
X51871428Y-160630000D01*
X51728571Y-160558571D01*
X51514286Y-160558571D01*
X51371428Y-160630000D01*
X51300000Y-160772857D01*
X51300000Y-161558571D01*
D10*
X59999047Y-152022381D02*
X60475238Y-152022381D01*
X60475238Y-151022381D01*
X59665714Y-152022381D02*
X59665714Y-151022381D01*
X59332380Y-151736667D01*
X58999047Y-151022381D01*
X58999047Y-152022381D01*
X58618095Y-151022381D02*
X57999047Y-151022381D01*
X58332381Y-151403333D01*
X58189523Y-151403333D01*
X58094285Y-151450952D01*
X58046666Y-151498571D01*
X57999047Y-151593810D01*
X57999047Y-151831905D01*
X58046666Y-151927143D01*
X58094285Y-151974762D01*
X58189523Y-152022381D01*
X58475238Y-152022381D01*
X58570476Y-151974762D01*
X58618095Y-151927143D01*
X57141904Y-151022381D02*
X57332381Y-151022381D01*
X57427619Y-151070000D01*
X57475238Y-151117619D01*
X57570476Y-151260476D01*
X57618095Y-151450952D01*
X57618095Y-151831905D01*
X57570476Y-151927143D01*
X57522857Y-151974762D01*
X57427619Y-152022381D01*
X57237142Y-152022381D01*
X57141904Y-151974762D01*
X57094285Y-151927143D01*
X57046666Y-151831905D01*
X57046666Y-151593810D01*
X57094285Y-151498571D01*
X57141904Y-151450952D01*
X57237142Y-151403333D01*
X57427619Y-151403333D01*
X57522857Y-151450952D01*
X57570476Y-151498571D01*
X57618095Y-151593810D01*
X56713333Y-151022381D02*
X56046666Y-151022381D01*
X56475238Y-152022381D01*
X55141904Y-152022381D02*
X55713333Y-152022381D01*
X55427619Y-152022381D02*
X55427619Y-151022381D01*
X55522857Y-151165238D01*
X55618095Y-151260476D01*
X55713333Y-151308095D01*
X54046666Y-151355714D02*
X53808571Y-152022381D01*
X53570475Y-151355714D01*
X52665713Y-152022381D02*
X53237142Y-152022381D01*
X52951428Y-152022381D02*
X52951428Y-151022381D01*
X53046666Y-151165238D01*
X53141904Y-151260476D01*
X53237142Y-151308095D01*
X52237142Y-151927143D02*
X52189523Y-151974762D01*
X52237142Y-152022381D01*
X52284761Y-151974762D01*
X52237142Y-151927143D01*
X52237142Y-152022381D01*
X51856190Y-151022381D02*
X51237142Y-151022381D01*
X51570476Y-151403333D01*
X51427618Y-151403333D01*
X51332380Y-151450952D01*
X51284761Y-151498571D01*
X51237142Y-151593810D01*
X51237142Y-151831905D01*
X51284761Y-151927143D01*
X51332380Y-151974762D01*
X51427618Y-152022381D01*
X51713333Y-152022381D01*
X51808571Y-151974762D01*
X51856190Y-151927143D01*
%LPC*%
D12*
X63420000Y-151800000D03*
D13*
X55850900Y-154050360D03*
X55850900Y-158449640D03*
D14*
X69750000Y-160400000D03*
D15*
X69750000Y-157860000D03*
M02*
