G04 #@! TF.FileFunction,Copper,L1,Top,Signal*
%FSLAX46Y46*%
G04 Gerber Fmt 4.6, Leading zero omitted, Abs format (unit mm)*
G04 Created by KiCad (PCBNEW 4.0.3-stable) date 10/06/16 09:44:46*
%MOMM*%
%LPD*%
G01*
G04 APERTURE LIST*
%ADD10C,0.100000*%
%ADD11C,2.235200*%
%ADD12R,1.825000X2.200000*%
%ADD13R,2.301240X0.500380*%
%ADD14R,2.499360X1.998980*%
%ADD15R,1.060000X0.650000*%
%ADD16R,1.800860X1.597660*%
%ADD17R,1.600000X1.000000*%
%ADD18R,1.000000X1.600000*%
%ADD19R,0.900000X1.700000*%
%ADD20R,2.032000X2.032000*%
%ADD21O,2.032000X2.032000*%
%ADD22C,0.889000*%
%ADD23C,0.254000*%
%ADD24C,0.152400*%
G04 APERTURE END LIST*
D10*
D11*
X63420000Y-151800000D03*
D12*
X67552500Y-153530000D03*
X70127500Y-153530000D03*
D13*
X58449320Y-154649800D03*
X58449320Y-155449900D03*
X58449320Y-156250000D03*
X58449320Y-157050100D03*
X58449320Y-157850200D03*
D14*
X58350260Y-151799920D03*
X52851160Y-151799920D03*
X58350260Y-160700080D03*
X52851160Y-160700080D03*
D15*
X63620000Y-154300000D03*
X63620000Y-155250000D03*
X63620000Y-156200000D03*
X65820000Y-156200000D03*
X65820000Y-154300000D03*
D16*
X66680000Y-158010140D03*
X66680000Y-160849860D03*
D17*
X61460000Y-153030000D03*
X61460000Y-156030000D03*
D18*
X64500000Y-158000000D03*
X61500000Y-158000000D03*
D19*
X64450000Y-160800000D03*
X61550000Y-160800000D03*
D20*
X69750000Y-160400000D03*
D21*
X69750000Y-157860000D03*
D22*
X52500000Y-157500000D03*
X55000000Y-157500000D03*
X53750000Y-157500000D03*
X55000000Y-156250000D03*
X53750000Y-156260000D03*
X52500000Y-156260000D03*
X53750000Y-155000000D03*
X55000000Y-155000000D03*
X52500000Y-155000000D03*
D23*
X63420000Y-151800000D02*
X62090000Y-151800000D01*
X61460000Y-152430000D02*
X61460000Y-153030000D01*
X62090000Y-151800000D02*
X61460000Y-152430000D01*
X64540000Y-155870000D02*
X64210000Y-156200000D01*
X64210000Y-156200000D02*
X63620000Y-156200000D01*
X63620000Y-154300000D02*
X64220000Y-154300000D01*
X64540000Y-154620000D02*
X64540000Y-155870000D01*
X64540000Y-155870000D02*
X64540000Y-155880000D01*
X64220000Y-154300000D02*
X64540000Y-154620000D01*
X63620000Y-154300000D02*
X61890000Y-154300000D01*
X61890000Y-154300000D02*
X61460000Y-153870000D01*
X58449320Y-154649800D02*
X60680200Y-154649800D01*
X61460000Y-153870000D02*
X61460000Y-153030000D01*
X60680200Y-154649800D02*
X61460000Y-153870000D01*
X53750000Y-157500000D02*
X55000000Y-157500000D01*
X55000000Y-157500000D02*
X55000000Y-156250000D01*
X52500000Y-157500000D02*
X53750000Y-157500000D01*
X52500000Y-156260000D02*
X53750000Y-156260000D01*
X54990000Y-156260000D02*
X53750000Y-156260000D01*
X54990000Y-156260000D02*
X55000000Y-156250000D01*
X52500000Y-155000000D02*
X53750000Y-155000000D01*
X55000000Y-155000000D02*
X55000000Y-156250000D01*
X53750000Y-155000000D02*
X55000000Y-155000000D01*
X55000000Y-156250000D02*
X51400000Y-156250000D01*
X52851160Y-151799920D02*
X51400000Y-153251080D01*
X51400000Y-159248920D02*
X52851160Y-160700080D01*
X51400000Y-153251080D02*
X51400000Y-156250000D01*
X51400000Y-156250000D02*
X51400000Y-159248920D01*
X61500000Y-158000000D02*
X61500000Y-156070000D01*
X61500000Y-156070000D02*
X61460000Y-156030000D01*
X61550000Y-160800000D02*
X61550000Y-158050000D01*
X61550000Y-158050000D02*
X61500000Y-158000000D01*
X61550000Y-160800000D02*
X61450080Y-160700080D01*
X61450080Y-160700080D02*
X58350260Y-160700080D01*
X58350260Y-160700080D02*
X58449320Y-160601020D01*
X58449320Y-160601020D02*
X58449320Y-157850200D01*
X58350260Y-160700080D02*
X52851160Y-160700080D01*
X52851160Y-151799920D02*
X58350260Y-151799920D01*
X63620000Y-155250000D02*
X62970000Y-155250000D01*
X62970000Y-155250000D02*
X62190000Y-156030000D01*
X62190000Y-156030000D02*
X61460000Y-156030000D01*
X70127500Y-157482500D02*
X70127500Y-153530000D01*
X69750000Y-157860000D02*
X70127500Y-157482500D01*
X65820000Y-156200000D02*
X65380000Y-156200000D01*
X65380000Y-156200000D02*
X64500000Y-157080000D01*
X64500000Y-157080000D02*
X64500000Y-158000000D01*
X66680000Y-158010140D02*
X69599860Y-158010140D01*
X69599860Y-158010140D02*
X69750000Y-157860000D01*
X64500000Y-158000000D02*
X66669860Y-158000000D01*
X66669860Y-158000000D02*
X66680000Y-158010140D01*
D24*
X65820000Y-154300000D02*
X66782500Y-154300000D01*
X66782500Y-154300000D02*
X67552500Y-153530000D01*
X66680000Y-160849860D02*
X64499860Y-160849860D01*
X64499860Y-160849860D02*
X64450000Y-160800000D01*
D23*
G36*
X62831391Y-151018565D02*
X64392006Y-151911635D01*
X64398921Y-151917130D01*
X64398823Y-151925953D01*
X64076358Y-153889192D01*
X64075099Y-153899452D01*
X64073420Y-153920037D01*
X64073000Y-153930361D01*
X64073000Y-154530491D01*
X64071798Y-154536536D01*
X63090000Y-154536536D01*
X63055647Y-154543000D01*
X63023508Y-154543000D01*
X63000394Y-154545121D01*
X62954936Y-154553535D01*
X62932592Y-154559828D01*
X62387374Y-154768829D01*
X62364837Y-154773000D01*
X57439509Y-154773000D01*
X57429075Y-154770925D01*
X57427000Y-154760491D01*
X57427000Y-154339509D01*
X57429075Y-154329075D01*
X57439509Y-154327000D01*
X60487612Y-154327000D01*
X60507518Y-154325430D01*
X60546837Y-154319190D01*
X60584691Y-154306865D01*
X60620146Y-154288759D01*
X60652324Y-154265321D01*
X60680432Y-154237128D01*
X60703775Y-154204875D01*
X60721773Y-154169364D01*
X60733982Y-154131474D01*
X60740102Y-154092137D01*
X60741611Y-154072226D01*
X60737220Y-152631927D01*
X60738581Y-152622895D01*
X60744875Y-152616277D01*
X62810644Y-151020001D01*
X62820721Y-151014988D01*
X62831391Y-151018565D01*
X62831391Y-151018565D01*
G37*
X62831391Y-151018565D02*
X64392006Y-151911635D01*
X64398921Y-151917130D01*
X64398823Y-151925953D01*
X64076358Y-153889192D01*
X64075099Y-153899452D01*
X64073420Y-153920037D01*
X64073000Y-153930361D01*
X64073000Y-154530491D01*
X64071798Y-154536536D01*
X63090000Y-154536536D01*
X63055647Y-154543000D01*
X63023508Y-154543000D01*
X63000394Y-154545121D01*
X62954936Y-154553535D01*
X62932592Y-154559828D01*
X62387374Y-154768829D01*
X62364837Y-154773000D01*
X57439509Y-154773000D01*
X57429075Y-154770925D01*
X57427000Y-154760491D01*
X57427000Y-154339509D01*
X57429075Y-154329075D01*
X57439509Y-154327000D01*
X60487612Y-154327000D01*
X60507518Y-154325430D01*
X60546837Y-154319190D01*
X60584691Y-154306865D01*
X60620146Y-154288759D01*
X60652324Y-154265321D01*
X60680432Y-154237128D01*
X60703775Y-154204875D01*
X60721773Y-154169364D01*
X60733982Y-154131474D01*
X60740102Y-154092137D01*
X60741611Y-154072226D01*
X60737220Y-152631927D01*
X60738581Y-152622895D01*
X60744875Y-152616277D01*
X62810644Y-151020001D01*
X62820721Y-151014988D01*
X62831391Y-151018565D01*
G36*
X59873000Y-153360491D02*
X59870925Y-153370925D01*
X59860491Y-153373000D01*
X56627000Y-153373000D01*
X56602224Y-153375440D01*
X56553623Y-153385107D01*
X56543879Y-153389143D01*
X56394034Y-153239037D01*
X56042210Y-153092947D01*
X55661261Y-153092614D01*
X55309183Y-153238090D01*
X55039577Y-153507226D01*
X54893487Y-153859050D01*
X54893154Y-154239999D01*
X55038630Y-154592077D01*
X55307766Y-154861683D01*
X55659590Y-155007773D01*
X56040539Y-155008106D01*
X56373000Y-154870736D01*
X56373000Y-157473000D01*
X56375440Y-157497776D01*
X56385107Y-157546377D01*
X56404070Y-157592158D01*
X56431600Y-157633360D01*
X56466640Y-157668400D01*
X56507842Y-157695930D01*
X56553623Y-157714893D01*
X56602224Y-157724560D01*
X56627000Y-157727000D01*
X57023374Y-157727000D01*
X57097188Y-157777435D01*
X57298700Y-157818242D01*
X59599940Y-157818242D01*
X59788193Y-157782820D01*
X59875290Y-157726774D01*
X59897776Y-157724560D01*
X59946377Y-157714893D01*
X59992158Y-157695930D01*
X60033360Y-157668400D01*
X60068400Y-157633360D01*
X60095930Y-157592158D01*
X60114893Y-157546377D01*
X60124560Y-157497776D01*
X60127000Y-157473000D01*
X60127000Y-155639509D01*
X60129075Y-155629075D01*
X60139509Y-155627000D01*
X62360491Y-155627000D01*
X62370925Y-155629075D01*
X62373000Y-155639509D01*
X62373000Y-161917000D01*
X50857420Y-161917000D01*
X50721329Y-161889930D01*
X50654633Y-161845365D01*
X50610070Y-161778671D01*
X50583000Y-161642580D01*
X50583000Y-158639279D01*
X54893154Y-158639279D01*
X55038630Y-158991357D01*
X55307766Y-159260963D01*
X55659590Y-159407053D01*
X56040539Y-159407386D01*
X56392617Y-159261910D01*
X56662223Y-158992774D01*
X56808313Y-158640950D01*
X56808646Y-158260001D01*
X56663170Y-157907923D01*
X56394034Y-157638317D01*
X56042210Y-157492227D01*
X55661261Y-157491894D01*
X55309183Y-157637370D01*
X55039577Y-157906506D01*
X54893487Y-158258330D01*
X54893154Y-158639279D01*
X50583000Y-158639279D01*
X50583000Y-150857420D01*
X50610070Y-150721329D01*
X50654633Y-150654635D01*
X50721329Y-150610070D01*
X50857420Y-150583000D01*
X59873000Y-150583000D01*
X59873000Y-153360491D01*
X59873000Y-153360491D01*
G37*
X59873000Y-153360491D02*
X59870925Y-153370925D01*
X59860491Y-153373000D01*
X56627000Y-153373000D01*
X56602224Y-153375440D01*
X56553623Y-153385107D01*
X56543879Y-153389143D01*
X56394034Y-153239037D01*
X56042210Y-153092947D01*
X55661261Y-153092614D01*
X55309183Y-153238090D01*
X55039577Y-153507226D01*
X54893487Y-153859050D01*
X54893154Y-154239999D01*
X55038630Y-154592077D01*
X55307766Y-154861683D01*
X55659590Y-155007773D01*
X56040539Y-155008106D01*
X56373000Y-154870736D01*
X56373000Y-157473000D01*
X56375440Y-157497776D01*
X56385107Y-157546377D01*
X56404070Y-157592158D01*
X56431600Y-157633360D01*
X56466640Y-157668400D01*
X56507842Y-157695930D01*
X56553623Y-157714893D01*
X56602224Y-157724560D01*
X56627000Y-157727000D01*
X57023374Y-157727000D01*
X57097188Y-157777435D01*
X57298700Y-157818242D01*
X59599940Y-157818242D01*
X59788193Y-157782820D01*
X59875290Y-157726774D01*
X59897776Y-157724560D01*
X59946377Y-157714893D01*
X59992158Y-157695930D01*
X60033360Y-157668400D01*
X60068400Y-157633360D01*
X60095930Y-157592158D01*
X60114893Y-157546377D01*
X60124560Y-157497776D01*
X60127000Y-157473000D01*
X60127000Y-155639509D01*
X60129075Y-155629075D01*
X60139509Y-155627000D01*
X62360491Y-155627000D01*
X62370925Y-155629075D01*
X62373000Y-155639509D01*
X62373000Y-161917000D01*
X50857420Y-161917000D01*
X50721329Y-161889930D01*
X50654633Y-161845365D01*
X50610070Y-161778671D01*
X50583000Y-161642580D01*
X50583000Y-158639279D01*
X54893154Y-158639279D01*
X55038630Y-158991357D01*
X55307766Y-159260963D01*
X55659590Y-159407053D01*
X56040539Y-159407386D01*
X56392617Y-159261910D01*
X56662223Y-158992774D01*
X56808313Y-158640950D01*
X56808646Y-158260001D01*
X56663170Y-157907923D01*
X56394034Y-157638317D01*
X56042210Y-157492227D01*
X55661261Y-157491894D01*
X55309183Y-157637370D01*
X55039577Y-157906506D01*
X54893487Y-158258330D01*
X54893154Y-158639279D01*
X50583000Y-158639279D01*
X50583000Y-150857420D01*
X50610070Y-150721329D01*
X50654633Y-150654635D01*
X50721329Y-150610070D01*
X50857420Y-150583000D01*
X59873000Y-150583000D01*
X59873000Y-153360491D01*
G36*
X70920925Y-152439075D02*
X70923000Y-152449509D01*
X70923000Y-158825491D01*
X70920925Y-158835925D01*
X70910491Y-158838000D01*
X64139509Y-158838000D01*
X64129075Y-158835925D01*
X64127000Y-158825491D01*
X64127000Y-157214045D01*
X64129235Y-157202633D01*
X64135605Y-157192913D01*
X65297586Y-156003045D01*
X65303938Y-155998070D01*
X65311942Y-155997000D01*
X69073000Y-155997000D01*
X69097776Y-155994560D01*
X69146377Y-155984893D01*
X69192158Y-155965930D01*
X69233360Y-155938400D01*
X69268400Y-155903360D01*
X69295930Y-155862158D01*
X69314893Y-155816377D01*
X69324560Y-155767776D01*
X69327000Y-155743000D01*
X69327000Y-152449509D01*
X69329075Y-152439075D01*
X69339509Y-152437000D01*
X70910491Y-152437000D01*
X70920925Y-152439075D01*
X70920925Y-152439075D01*
G37*
X70920925Y-152439075D02*
X70923000Y-152449509D01*
X70923000Y-158825491D01*
X70920925Y-158835925D01*
X70910491Y-158838000D01*
X64139509Y-158838000D01*
X64129075Y-158835925D01*
X64127000Y-158825491D01*
X64127000Y-157214045D01*
X64129235Y-157202633D01*
X64135605Y-157192913D01*
X65297586Y-156003045D01*
X65303938Y-155998070D01*
X65311942Y-155997000D01*
X69073000Y-155997000D01*
X69097776Y-155994560D01*
X69146377Y-155984893D01*
X69192158Y-155965930D01*
X69233360Y-155938400D01*
X69268400Y-155903360D01*
X69295930Y-155862158D01*
X69314893Y-155816377D01*
X69324560Y-155767776D01*
X69327000Y-155743000D01*
X69327000Y-152449509D01*
X69329075Y-152439075D01*
X69339509Y-152437000D01*
X70910491Y-152437000D01*
X70920925Y-152439075D01*
G36*
X68340925Y-152429075D02*
X68343000Y-152439509D01*
X68343000Y-154510491D01*
X68340925Y-154520925D01*
X68330491Y-154523000D01*
X65359509Y-154523000D01*
X65349075Y-154520925D01*
X65347000Y-154510491D01*
X65347000Y-154099375D01*
X65348958Y-154088634D01*
X65354581Y-154079274D01*
X66801495Y-152433764D01*
X66807988Y-152428206D01*
X66816446Y-152427000D01*
X68330491Y-152427000D01*
X68340925Y-152429075D01*
X68340925Y-152429075D01*
G37*
X68340925Y-152429075D02*
X68343000Y-152439509D01*
X68343000Y-154510491D01*
X68340925Y-154520925D01*
X68330491Y-154523000D01*
X65359509Y-154523000D01*
X65349075Y-154520925D01*
X65347000Y-154510491D01*
X65347000Y-154099375D01*
X65348958Y-154088634D01*
X65354581Y-154079274D01*
X66801495Y-152433764D01*
X66807988Y-152428206D01*
X66816446Y-152427000D01*
X68330491Y-152427000D01*
X68340925Y-152429075D01*
M02*
