M48
;DRILL file {KiCad 4.0.3-stable} date 09/17/16 17:41:49
;FORMAT={-:-/ absolute / inch / decimal}
FMAT,2
INCH,TZ
T1C0.013
T2C0.040
T3C0.035
T4C0.035
%
G90
G05
M72
T1
X2.0732Y-6.0996
X2.0736Y-6.1496
X2.074Y-6.1996
X2.1232Y-6.0996
X2.1232Y-6.1496
X2.1232Y-6.1996
X2.1732Y-6.0996
X2.1732Y-6.1496
X2.1732Y-6.1996
X2.7539Y-5.8587
X2.7539Y-5.9087
X2.7539Y-5.9587
X2.8039Y-5.8587
X2.8039Y-5.9087
X2.8039Y-5.9587
X2.8539Y-5.8587
X2.8539Y-5.9087
X2.8539Y-5.9587
X2.9039Y-5.8587
X2.9039Y-5.9087
X2.9039Y-5.9587
T2
X2.8386Y-6.0492
X2.8386Y-6.1492
X2.8386Y-6.2492
T3
X2.2067Y-6.063
X2.2067Y-6.2362
T4
X2.1744Y-6.0217
X2.1744Y-6.3366
T0
M30
