G04 #@! TF.FileFunction,Copper,L1,Top,Signal*
%FSLAX46Y46*%
G04 Gerber Fmt 4.6, Leading zero omitted, Abs format (unit mm)*
G04 Created by KiCad (PCBNEW 4.0.3-stable) date 09/08/16 09:52:24*
%MOMM*%
%LPD*%
G01*
G04 APERTURE LIST*
%ADD10C,0.100000*%
%ADD11R,2.032000X1.727200*%
%ADD12O,2.032000X1.727200*%
%ADD13R,2.000000X1.600000*%
%ADD14R,1.250000X1.500000*%
%ADD15R,2.301240X0.500380*%
%ADD16R,2.499360X1.998980*%
%ADD17R,1.060000X0.650000*%
%ADD18R,2.029460X1.140460*%
%ADD19C,0.685800*%
%ADD20C,0.254000*%
%ADD21C,0.152400*%
G04 APERTURE END LIST*
D10*
D11*
X72100000Y-153650000D03*
D12*
X72100000Y-156190000D03*
X72100000Y-158730000D03*
D13*
X63500000Y-151750000D03*
X67500000Y-151750000D03*
X67500000Y-160650000D03*
X63500000Y-160650000D03*
D14*
X69000000Y-154950000D03*
X69000000Y-157450000D03*
D15*
X58649320Y-154599800D03*
X58649320Y-155399900D03*
X58649320Y-156200000D03*
X58649320Y-157000100D03*
X58649320Y-157800200D03*
D16*
X58550260Y-151749920D03*
X53051160Y-151749920D03*
X58550260Y-160650080D03*
X53051160Y-160650080D03*
D17*
X64400000Y-155250000D03*
X64400000Y-156200000D03*
X64400000Y-157150000D03*
X66600000Y-157150000D03*
X66600000Y-155250000D03*
D18*
X62000000Y-154996040D03*
X62000000Y-157403960D03*
D19*
X72490000Y-151350000D03*
X71220000Y-151350000D03*
X73760000Y-151350000D03*
X52670000Y-156200000D03*
X53930000Y-156200000D03*
X53930000Y-157470000D03*
X52680000Y-157470000D03*
X53930000Y-154930000D03*
X52660000Y-154930000D03*
X55200000Y-154930000D03*
X55200000Y-157470000D03*
X55200000Y-156200000D03*
X69950000Y-151350000D03*
D20*
X72100000Y-153650000D02*
X71750000Y-153300000D01*
X71750000Y-153300000D02*
X63600000Y-153300000D01*
X63600000Y-153300000D02*
X63500000Y-153200000D01*
X65500000Y-155500000D02*
X65500000Y-156900000D01*
X65250000Y-157150000D02*
X65500000Y-156900000D01*
X64400000Y-157150000D02*
X65250000Y-157150000D01*
X65250000Y-155250000D02*
X65500000Y-155500000D01*
X65250000Y-155250000D02*
X64400000Y-155250000D01*
X64400000Y-155250000D02*
X64400000Y-154100000D01*
X64400000Y-154100000D02*
X63500000Y-153200000D01*
X63500000Y-153200000D02*
X63500000Y-151750000D01*
X62000000Y-157403960D02*
X62253960Y-157150000D01*
X62253960Y-157150000D02*
X64400000Y-157150000D01*
X73760000Y-151350000D02*
X72490000Y-151350000D01*
X71220000Y-151350000D02*
X69950000Y-151350000D01*
X72490000Y-151350000D02*
X71220000Y-151350000D01*
X52670000Y-156200000D02*
X53930000Y-156200000D01*
X53930000Y-156200000D02*
X53930000Y-157470000D01*
X52670000Y-157460000D02*
X52680000Y-157470000D01*
X52670000Y-157460000D02*
X52670000Y-156200000D01*
X53930000Y-156200000D02*
X53930000Y-154930000D01*
X52660000Y-154930000D02*
X52660000Y-156190000D01*
X55200000Y-154930000D02*
X55200000Y-156200000D01*
X53930000Y-154930000D02*
X55200000Y-154930000D01*
X52660000Y-154930000D02*
X53930000Y-154930000D01*
X52660000Y-156190000D02*
X52670000Y-156200000D01*
X55200000Y-156200000D02*
X55200000Y-157470000D01*
D21*
X55200000Y-156200000D02*
X53051160Y-156200000D01*
D20*
X69550000Y-151750000D02*
X69950000Y-151350000D01*
X69550000Y-151750000D02*
X67500000Y-151750000D01*
X53051160Y-156200000D02*
X53051160Y-160650080D01*
X59999800Y-157800200D02*
X58649320Y-157800200D01*
X60350000Y-157450000D02*
X59999800Y-157800200D01*
X60350000Y-156650000D02*
X60350000Y-157450000D01*
X60800000Y-156200000D02*
X60350000Y-156650000D01*
X64400000Y-156200000D02*
X60800000Y-156200000D01*
X53051160Y-151749920D02*
X58550260Y-151749920D01*
X58649320Y-157800200D02*
X58649320Y-160551020D01*
X58649320Y-160551020D02*
X58550260Y-160650080D01*
X53051160Y-151749920D02*
X53051160Y-156200000D01*
X53051160Y-160650080D02*
X58550260Y-160650080D01*
X58550260Y-160650080D02*
X63499920Y-160650080D01*
X63499920Y-160650080D02*
X63500000Y-160650000D01*
X69000000Y-157450000D02*
X69000000Y-158400000D01*
X69330000Y-158730000D02*
X72100000Y-158730000D01*
X69000000Y-158400000D02*
X69330000Y-158730000D01*
X66600000Y-157150000D02*
X68700000Y-157150000D01*
X68700000Y-157150000D02*
X69000000Y-157450000D01*
X66600000Y-157150000D02*
X66600000Y-158250000D01*
X67500000Y-159150000D02*
X67500000Y-160650000D01*
X66600000Y-158250000D02*
X67500000Y-159150000D01*
D21*
X66600000Y-155250000D02*
X68700000Y-155250000D01*
X68700000Y-155250000D02*
X69000000Y-154950000D01*
D20*
X62000000Y-154996040D02*
X60696040Y-154996040D01*
X60696040Y-154996040D02*
X60299800Y-154599800D01*
X60299800Y-154599800D02*
X58649320Y-154599800D01*
G36*
X70770371Y-156666288D02*
X70773000Y-156670223D01*
X70773000Y-157700000D01*
X70783006Y-157749410D01*
X70803545Y-157779470D01*
X70749268Y-157827964D01*
X70495291Y-158355209D01*
X70492642Y-158370974D01*
X70613783Y-158603000D01*
X71973000Y-158603000D01*
X71973000Y-158583000D01*
X72227000Y-158583000D01*
X72227000Y-158603000D01*
X73586217Y-158603000D01*
X73707358Y-158370974D01*
X73704709Y-158355209D01*
X73450732Y-157827964D01*
X73449653Y-157827000D01*
X74544000Y-157827000D01*
X74544000Y-161555089D01*
X74509562Y-161728223D01*
X74436928Y-161836927D01*
X74328224Y-161909562D01*
X74155089Y-161944000D01*
X68904025Y-161944000D01*
X69038327Y-161809699D01*
X69135000Y-161576310D01*
X69135000Y-160935750D01*
X68976250Y-160777000D01*
X67627000Y-160777000D01*
X67627000Y-160797000D01*
X67373000Y-160797000D01*
X67373000Y-160777000D01*
X66023750Y-160777000D01*
X65865000Y-160935750D01*
X65865000Y-161576310D01*
X65961673Y-161809699D01*
X66095975Y-161944000D01*
X64827000Y-161944000D01*
X64827000Y-161646298D01*
X64857859Y-161601134D01*
X64888464Y-161450000D01*
X64888464Y-159850000D01*
X64864697Y-159723690D01*
X65865000Y-159723690D01*
X65865000Y-160364250D01*
X66023750Y-160523000D01*
X67373000Y-160523000D01*
X67373000Y-159373750D01*
X67627000Y-159373750D01*
X67627000Y-160523000D01*
X68976250Y-160523000D01*
X69135000Y-160364250D01*
X69135000Y-159723690D01*
X69038327Y-159490301D01*
X68859698Y-159311673D01*
X68626309Y-159215000D01*
X67785750Y-159215000D01*
X67627000Y-159373750D01*
X67373000Y-159373750D01*
X67214250Y-159215000D01*
X66373691Y-159215000D01*
X66140302Y-159311673D01*
X65961673Y-159490301D01*
X65865000Y-159723690D01*
X64864697Y-159723690D01*
X64861897Y-159708810D01*
X64827000Y-159654578D01*
X64827000Y-159200000D01*
X64808902Y-159134659D01*
X64781523Y-159089026D01*
X70492642Y-159089026D01*
X70495291Y-159104791D01*
X70749268Y-159632036D01*
X71185680Y-160021954D01*
X71738087Y-160215184D01*
X71973000Y-160070924D01*
X71973000Y-158857000D01*
X72227000Y-158857000D01*
X72227000Y-160070924D01*
X72461913Y-160215184D01*
X73014320Y-160021954D01*
X73450732Y-159632036D01*
X73704709Y-159104791D01*
X73707358Y-159089026D01*
X73586217Y-158857000D01*
X72227000Y-158857000D01*
X71973000Y-158857000D01*
X70613783Y-158857000D01*
X70492642Y-159089026D01*
X64781523Y-159089026D01*
X64046185Y-157863464D01*
X64930000Y-157863464D01*
X65071190Y-157836897D01*
X65200865Y-157753454D01*
X65268616Y-157654297D01*
X65442612Y-157619687D01*
X65531673Y-157834699D01*
X65710302Y-158013327D01*
X65943691Y-158110000D01*
X66314250Y-158110000D01*
X66473000Y-157951250D01*
X66473000Y-157277000D01*
X66453000Y-157277000D01*
X66453000Y-157023000D01*
X66473000Y-157023000D01*
X66473000Y-157003000D01*
X66727000Y-157003000D01*
X66727000Y-157023000D01*
X66747000Y-157023000D01*
X66747000Y-157277000D01*
X66727000Y-157277000D01*
X66727000Y-157951250D01*
X66885750Y-158110000D01*
X67256309Y-158110000D01*
X67489698Y-158013327D01*
X67668327Y-157834699D01*
X67765000Y-157601310D01*
X67765000Y-157577002D01*
X67898748Y-157577002D01*
X67740000Y-157735750D01*
X67740000Y-158326309D01*
X67836673Y-158559698D01*
X68015301Y-158738327D01*
X68248690Y-158835000D01*
X68714250Y-158835000D01*
X68873000Y-158676250D01*
X68873000Y-157577000D01*
X69127000Y-157577000D01*
X69127000Y-158676250D01*
X69285750Y-158835000D01*
X69751310Y-158835000D01*
X69984699Y-158738327D01*
X70163327Y-158559698D01*
X70260000Y-158326309D01*
X70260000Y-157735750D01*
X70101250Y-157577000D01*
X69127000Y-157577000D01*
X68873000Y-157577000D01*
X68853000Y-157577000D01*
X68853000Y-157323000D01*
X68873000Y-157323000D01*
X68873000Y-157303000D01*
X69127000Y-157303000D01*
X69127000Y-157323000D01*
X70101250Y-157323000D01*
X70260000Y-157164250D01*
X70260000Y-156573691D01*
X70163327Y-156340302D01*
X70150025Y-156327000D01*
X70702882Y-156327000D01*
X70770371Y-156666288D01*
X70770371Y-156666288D01*
G37*
X70770371Y-156666288D02*
X70773000Y-156670223D01*
X70773000Y-157700000D01*
X70783006Y-157749410D01*
X70803545Y-157779470D01*
X70749268Y-157827964D01*
X70495291Y-158355209D01*
X70492642Y-158370974D01*
X70613783Y-158603000D01*
X71973000Y-158603000D01*
X71973000Y-158583000D01*
X72227000Y-158583000D01*
X72227000Y-158603000D01*
X73586217Y-158603000D01*
X73707358Y-158370974D01*
X73704709Y-158355209D01*
X73450732Y-157827964D01*
X73449653Y-157827000D01*
X74544000Y-157827000D01*
X74544000Y-161555089D01*
X74509562Y-161728223D01*
X74436928Y-161836927D01*
X74328224Y-161909562D01*
X74155089Y-161944000D01*
X68904025Y-161944000D01*
X69038327Y-161809699D01*
X69135000Y-161576310D01*
X69135000Y-160935750D01*
X68976250Y-160777000D01*
X67627000Y-160777000D01*
X67627000Y-160797000D01*
X67373000Y-160797000D01*
X67373000Y-160777000D01*
X66023750Y-160777000D01*
X65865000Y-160935750D01*
X65865000Y-161576310D01*
X65961673Y-161809699D01*
X66095975Y-161944000D01*
X64827000Y-161944000D01*
X64827000Y-161646298D01*
X64857859Y-161601134D01*
X64888464Y-161450000D01*
X64888464Y-159850000D01*
X64864697Y-159723690D01*
X65865000Y-159723690D01*
X65865000Y-160364250D01*
X66023750Y-160523000D01*
X67373000Y-160523000D01*
X67373000Y-159373750D01*
X67627000Y-159373750D01*
X67627000Y-160523000D01*
X68976250Y-160523000D01*
X69135000Y-160364250D01*
X69135000Y-159723690D01*
X69038327Y-159490301D01*
X68859698Y-159311673D01*
X68626309Y-159215000D01*
X67785750Y-159215000D01*
X67627000Y-159373750D01*
X67373000Y-159373750D01*
X67214250Y-159215000D01*
X66373691Y-159215000D01*
X66140302Y-159311673D01*
X65961673Y-159490301D01*
X65865000Y-159723690D01*
X64864697Y-159723690D01*
X64861897Y-159708810D01*
X64827000Y-159654578D01*
X64827000Y-159200000D01*
X64808902Y-159134659D01*
X64781523Y-159089026D01*
X70492642Y-159089026D01*
X70495291Y-159104791D01*
X70749268Y-159632036D01*
X71185680Y-160021954D01*
X71738087Y-160215184D01*
X71973000Y-160070924D01*
X71973000Y-158857000D01*
X72227000Y-158857000D01*
X72227000Y-160070924D01*
X72461913Y-160215184D01*
X73014320Y-160021954D01*
X73450732Y-159632036D01*
X73704709Y-159104791D01*
X73707358Y-159089026D01*
X73586217Y-158857000D01*
X72227000Y-158857000D01*
X71973000Y-158857000D01*
X70613783Y-158857000D01*
X70492642Y-159089026D01*
X64781523Y-159089026D01*
X64046185Y-157863464D01*
X64930000Y-157863464D01*
X65071190Y-157836897D01*
X65200865Y-157753454D01*
X65268616Y-157654297D01*
X65442612Y-157619687D01*
X65531673Y-157834699D01*
X65710302Y-158013327D01*
X65943691Y-158110000D01*
X66314250Y-158110000D01*
X66473000Y-157951250D01*
X66473000Y-157277000D01*
X66453000Y-157277000D01*
X66453000Y-157023000D01*
X66473000Y-157023000D01*
X66473000Y-157003000D01*
X66727000Y-157003000D01*
X66727000Y-157023000D01*
X66747000Y-157023000D01*
X66747000Y-157277000D01*
X66727000Y-157277000D01*
X66727000Y-157951250D01*
X66885750Y-158110000D01*
X67256309Y-158110000D01*
X67489698Y-158013327D01*
X67668327Y-157834699D01*
X67765000Y-157601310D01*
X67765000Y-157577002D01*
X67898748Y-157577002D01*
X67740000Y-157735750D01*
X67740000Y-158326309D01*
X67836673Y-158559698D01*
X68015301Y-158738327D01*
X68248690Y-158835000D01*
X68714250Y-158835000D01*
X68873000Y-158676250D01*
X68873000Y-157577000D01*
X69127000Y-157577000D01*
X69127000Y-158676250D01*
X69285750Y-158835000D01*
X69751310Y-158835000D01*
X69984699Y-158738327D01*
X70163327Y-158559698D01*
X70260000Y-158326309D01*
X70260000Y-157735750D01*
X70101250Y-157577000D01*
X69127000Y-157577000D01*
X68873000Y-157577000D01*
X68853000Y-157577000D01*
X68853000Y-157323000D01*
X68873000Y-157323000D01*
X68873000Y-157303000D01*
X69127000Y-157303000D01*
X69127000Y-157323000D01*
X70101250Y-157323000D01*
X70260000Y-157164250D01*
X70260000Y-156573691D01*
X70163327Y-156340302D01*
X70150025Y-156327000D01*
X70702882Y-156327000D01*
X70770371Y-156666288D01*
G36*
X51166480Y-150624120D02*
X51166480Y-151464170D01*
X51325230Y-151622920D01*
X52924160Y-151622920D01*
X52924160Y-151602920D01*
X53178160Y-151602920D01*
X53178160Y-151622920D01*
X54777090Y-151622920D01*
X54935840Y-151464170D01*
X54935840Y-150624120D01*
X54866202Y-150456000D01*
X56735218Y-150456000D01*
X56665580Y-150624120D01*
X56665580Y-151464170D01*
X56824330Y-151622920D01*
X58423260Y-151622920D01*
X58423260Y-151602920D01*
X58677260Y-151602920D01*
X58677260Y-151622920D01*
X60276190Y-151622920D01*
X60434940Y-151464170D01*
X60434940Y-150624120D01*
X60365302Y-150456000D01*
X60723000Y-150456000D01*
X60723000Y-153673000D01*
X56900000Y-153673000D01*
X56850590Y-153683006D01*
X56825535Y-153700126D01*
X56755442Y-153530489D01*
X56522000Y-153296639D01*
X56216837Y-153169925D01*
X55886412Y-153169636D01*
X55581029Y-153295818D01*
X55347179Y-153529260D01*
X55220465Y-153834423D01*
X55220176Y-154164848D01*
X55346358Y-154470231D01*
X55579800Y-154704081D01*
X55884963Y-154830795D01*
X56215388Y-154831084D01*
X56520771Y-154704902D01*
X56754621Y-154471460D01*
X56773000Y-154427198D01*
X56773000Y-157500000D01*
X56783006Y-157549410D01*
X56811447Y-157591035D01*
X56853841Y-157618315D01*
X56900000Y-157627000D01*
X56974345Y-157627000D01*
X57022450Y-157675105D01*
X58522320Y-157675105D01*
X58522320Y-157653200D01*
X58776320Y-157653200D01*
X58776320Y-157675105D01*
X58796320Y-157675105D01*
X58796320Y-157925295D01*
X58776320Y-157925295D01*
X58776320Y-158526640D01*
X58935070Y-158685390D01*
X59926249Y-158685390D01*
X60159638Y-158588717D01*
X60338267Y-158410089D01*
X60372684Y-158327000D01*
X60826747Y-158327000D01*
X60834136Y-158332049D01*
X60985270Y-158362654D01*
X63014730Y-158362654D01*
X63155920Y-158336087D01*
X63170042Y-158327000D01*
X63428093Y-158327000D01*
X63960893Y-159215000D01*
X63785750Y-159215000D01*
X63627000Y-159373750D01*
X63627000Y-160523000D01*
X63647000Y-160523000D01*
X63647000Y-160777000D01*
X63627000Y-160777000D01*
X63627000Y-160797000D01*
X63373000Y-160797000D01*
X63373000Y-160777000D01*
X62023750Y-160777000D01*
X61865000Y-160935750D01*
X61865000Y-161576310D01*
X61961673Y-161809699D01*
X62095975Y-161944000D01*
X60365302Y-161944000D01*
X60434940Y-161775880D01*
X60434940Y-160935830D01*
X60276190Y-160777080D01*
X58677260Y-160777080D01*
X58677260Y-160797080D01*
X58423260Y-160797080D01*
X58423260Y-160777080D01*
X56824330Y-160777080D01*
X56665580Y-160935830D01*
X56665580Y-161775880D01*
X56735218Y-161944000D01*
X54866202Y-161944000D01*
X54935840Y-161775880D01*
X54935840Y-160935830D01*
X54777090Y-160777080D01*
X53178160Y-160777080D01*
X53178160Y-160797080D01*
X52924160Y-160797080D01*
X52924160Y-160777080D01*
X51325230Y-160777080D01*
X51166480Y-160935830D01*
X51166480Y-161775880D01*
X51236118Y-161944000D01*
X50844911Y-161944000D01*
X50671777Y-161909562D01*
X50563073Y-161836928D01*
X50490438Y-161728224D01*
X50456000Y-161555089D01*
X50456000Y-159524280D01*
X51166480Y-159524280D01*
X51166480Y-160364330D01*
X51325230Y-160523080D01*
X52924160Y-160523080D01*
X52924160Y-159174340D01*
X53178160Y-159174340D01*
X53178160Y-160523080D01*
X54777090Y-160523080D01*
X54935840Y-160364330D01*
X54935840Y-159524280D01*
X56665580Y-159524280D01*
X56665580Y-160364330D01*
X56824330Y-160523080D01*
X58423260Y-160523080D01*
X58423260Y-159174340D01*
X58677260Y-159174340D01*
X58677260Y-160523080D01*
X60276190Y-160523080D01*
X60434940Y-160364330D01*
X60434940Y-159723690D01*
X61865000Y-159723690D01*
X61865000Y-160364250D01*
X62023750Y-160523000D01*
X63373000Y-160523000D01*
X63373000Y-159373750D01*
X63214250Y-159215000D01*
X62373691Y-159215000D01*
X62140302Y-159311673D01*
X61961673Y-159490301D01*
X61865000Y-159723690D01*
X60434940Y-159723690D01*
X60434940Y-159524280D01*
X60338267Y-159290891D01*
X60159638Y-159112263D01*
X59926249Y-159015590D01*
X58836010Y-159015590D01*
X58677260Y-159174340D01*
X58423260Y-159174340D01*
X58264510Y-159015590D01*
X57174271Y-159015590D01*
X56940882Y-159112263D01*
X56762253Y-159290891D01*
X56665580Y-159524280D01*
X54935840Y-159524280D01*
X54839167Y-159290891D01*
X54660538Y-159112263D01*
X54427149Y-159015590D01*
X53336910Y-159015590D01*
X53178160Y-159174340D01*
X52924160Y-159174340D01*
X52765410Y-159015590D01*
X51675171Y-159015590D01*
X51441782Y-159112263D01*
X51263153Y-159290891D01*
X51166480Y-159524280D01*
X50456000Y-159524280D01*
X50456000Y-158564128D01*
X55220176Y-158564128D01*
X55346358Y-158869511D01*
X55579800Y-159103361D01*
X55884963Y-159230075D01*
X56215388Y-159230364D01*
X56520771Y-159104182D01*
X56754621Y-158870740D01*
X56881335Y-158565577D01*
X56881624Y-158235152D01*
X56819188Y-158084045D01*
X56863700Y-158084045D01*
X56863700Y-158176700D01*
X56960373Y-158410089D01*
X57139002Y-158588717D01*
X57372391Y-158685390D01*
X58363570Y-158685390D01*
X58522320Y-158526640D01*
X58522320Y-157925295D01*
X57022450Y-157925295D01*
X56863700Y-158084045D01*
X56819188Y-158084045D01*
X56755442Y-157929769D01*
X56522000Y-157695919D01*
X56216837Y-157569205D01*
X55886412Y-157568916D01*
X55581029Y-157695098D01*
X55347179Y-157928540D01*
X55220465Y-158233703D01*
X55220176Y-158564128D01*
X50456000Y-158564128D01*
X50456000Y-152035670D01*
X51166480Y-152035670D01*
X51166480Y-152875720D01*
X51263153Y-153109109D01*
X51441782Y-153287737D01*
X51675171Y-153384410D01*
X52765410Y-153384410D01*
X52924160Y-153225660D01*
X52924160Y-151876920D01*
X53178160Y-151876920D01*
X53178160Y-153225660D01*
X53336910Y-153384410D01*
X54427149Y-153384410D01*
X54660538Y-153287737D01*
X54839167Y-153109109D01*
X54935840Y-152875720D01*
X54935840Y-152035670D01*
X56665580Y-152035670D01*
X56665580Y-152875720D01*
X56762253Y-153109109D01*
X56940882Y-153287737D01*
X57174271Y-153384410D01*
X58264510Y-153384410D01*
X58423260Y-153225660D01*
X58423260Y-151876920D01*
X58677260Y-151876920D01*
X58677260Y-153225660D01*
X58836010Y-153384410D01*
X59926249Y-153384410D01*
X60159638Y-153287737D01*
X60338267Y-153109109D01*
X60434940Y-152875720D01*
X60434940Y-152035670D01*
X60276190Y-151876920D01*
X58677260Y-151876920D01*
X58423260Y-151876920D01*
X56824330Y-151876920D01*
X56665580Y-152035670D01*
X54935840Y-152035670D01*
X54777090Y-151876920D01*
X53178160Y-151876920D01*
X52924160Y-151876920D01*
X51325230Y-151876920D01*
X51166480Y-152035670D01*
X50456000Y-152035670D01*
X50456000Y-150844911D01*
X50490438Y-150671776D01*
X50563073Y-150563072D01*
X50671777Y-150490438D01*
X50844911Y-150456000D01*
X51236118Y-150456000D01*
X51166480Y-150624120D01*
X51166480Y-150624120D01*
G37*
X51166480Y-150624120D02*
X51166480Y-151464170D01*
X51325230Y-151622920D01*
X52924160Y-151622920D01*
X52924160Y-151602920D01*
X53178160Y-151602920D01*
X53178160Y-151622920D01*
X54777090Y-151622920D01*
X54935840Y-151464170D01*
X54935840Y-150624120D01*
X54866202Y-150456000D01*
X56735218Y-150456000D01*
X56665580Y-150624120D01*
X56665580Y-151464170D01*
X56824330Y-151622920D01*
X58423260Y-151622920D01*
X58423260Y-151602920D01*
X58677260Y-151602920D01*
X58677260Y-151622920D01*
X60276190Y-151622920D01*
X60434940Y-151464170D01*
X60434940Y-150624120D01*
X60365302Y-150456000D01*
X60723000Y-150456000D01*
X60723000Y-153673000D01*
X56900000Y-153673000D01*
X56850590Y-153683006D01*
X56825535Y-153700126D01*
X56755442Y-153530489D01*
X56522000Y-153296639D01*
X56216837Y-153169925D01*
X55886412Y-153169636D01*
X55581029Y-153295818D01*
X55347179Y-153529260D01*
X55220465Y-153834423D01*
X55220176Y-154164848D01*
X55346358Y-154470231D01*
X55579800Y-154704081D01*
X55884963Y-154830795D01*
X56215388Y-154831084D01*
X56520771Y-154704902D01*
X56754621Y-154471460D01*
X56773000Y-154427198D01*
X56773000Y-157500000D01*
X56783006Y-157549410D01*
X56811447Y-157591035D01*
X56853841Y-157618315D01*
X56900000Y-157627000D01*
X56974345Y-157627000D01*
X57022450Y-157675105D01*
X58522320Y-157675105D01*
X58522320Y-157653200D01*
X58776320Y-157653200D01*
X58776320Y-157675105D01*
X58796320Y-157675105D01*
X58796320Y-157925295D01*
X58776320Y-157925295D01*
X58776320Y-158526640D01*
X58935070Y-158685390D01*
X59926249Y-158685390D01*
X60159638Y-158588717D01*
X60338267Y-158410089D01*
X60372684Y-158327000D01*
X60826747Y-158327000D01*
X60834136Y-158332049D01*
X60985270Y-158362654D01*
X63014730Y-158362654D01*
X63155920Y-158336087D01*
X63170042Y-158327000D01*
X63428093Y-158327000D01*
X63960893Y-159215000D01*
X63785750Y-159215000D01*
X63627000Y-159373750D01*
X63627000Y-160523000D01*
X63647000Y-160523000D01*
X63647000Y-160777000D01*
X63627000Y-160777000D01*
X63627000Y-160797000D01*
X63373000Y-160797000D01*
X63373000Y-160777000D01*
X62023750Y-160777000D01*
X61865000Y-160935750D01*
X61865000Y-161576310D01*
X61961673Y-161809699D01*
X62095975Y-161944000D01*
X60365302Y-161944000D01*
X60434940Y-161775880D01*
X60434940Y-160935830D01*
X60276190Y-160777080D01*
X58677260Y-160777080D01*
X58677260Y-160797080D01*
X58423260Y-160797080D01*
X58423260Y-160777080D01*
X56824330Y-160777080D01*
X56665580Y-160935830D01*
X56665580Y-161775880D01*
X56735218Y-161944000D01*
X54866202Y-161944000D01*
X54935840Y-161775880D01*
X54935840Y-160935830D01*
X54777090Y-160777080D01*
X53178160Y-160777080D01*
X53178160Y-160797080D01*
X52924160Y-160797080D01*
X52924160Y-160777080D01*
X51325230Y-160777080D01*
X51166480Y-160935830D01*
X51166480Y-161775880D01*
X51236118Y-161944000D01*
X50844911Y-161944000D01*
X50671777Y-161909562D01*
X50563073Y-161836928D01*
X50490438Y-161728224D01*
X50456000Y-161555089D01*
X50456000Y-159524280D01*
X51166480Y-159524280D01*
X51166480Y-160364330D01*
X51325230Y-160523080D01*
X52924160Y-160523080D01*
X52924160Y-159174340D01*
X53178160Y-159174340D01*
X53178160Y-160523080D01*
X54777090Y-160523080D01*
X54935840Y-160364330D01*
X54935840Y-159524280D01*
X56665580Y-159524280D01*
X56665580Y-160364330D01*
X56824330Y-160523080D01*
X58423260Y-160523080D01*
X58423260Y-159174340D01*
X58677260Y-159174340D01*
X58677260Y-160523080D01*
X60276190Y-160523080D01*
X60434940Y-160364330D01*
X60434940Y-159723690D01*
X61865000Y-159723690D01*
X61865000Y-160364250D01*
X62023750Y-160523000D01*
X63373000Y-160523000D01*
X63373000Y-159373750D01*
X63214250Y-159215000D01*
X62373691Y-159215000D01*
X62140302Y-159311673D01*
X61961673Y-159490301D01*
X61865000Y-159723690D01*
X60434940Y-159723690D01*
X60434940Y-159524280D01*
X60338267Y-159290891D01*
X60159638Y-159112263D01*
X59926249Y-159015590D01*
X58836010Y-159015590D01*
X58677260Y-159174340D01*
X58423260Y-159174340D01*
X58264510Y-159015590D01*
X57174271Y-159015590D01*
X56940882Y-159112263D01*
X56762253Y-159290891D01*
X56665580Y-159524280D01*
X54935840Y-159524280D01*
X54839167Y-159290891D01*
X54660538Y-159112263D01*
X54427149Y-159015590D01*
X53336910Y-159015590D01*
X53178160Y-159174340D01*
X52924160Y-159174340D01*
X52765410Y-159015590D01*
X51675171Y-159015590D01*
X51441782Y-159112263D01*
X51263153Y-159290891D01*
X51166480Y-159524280D01*
X50456000Y-159524280D01*
X50456000Y-158564128D01*
X55220176Y-158564128D01*
X55346358Y-158869511D01*
X55579800Y-159103361D01*
X55884963Y-159230075D01*
X56215388Y-159230364D01*
X56520771Y-159104182D01*
X56754621Y-158870740D01*
X56881335Y-158565577D01*
X56881624Y-158235152D01*
X56819188Y-158084045D01*
X56863700Y-158084045D01*
X56863700Y-158176700D01*
X56960373Y-158410089D01*
X57139002Y-158588717D01*
X57372391Y-158685390D01*
X58363570Y-158685390D01*
X58522320Y-158526640D01*
X58522320Y-157925295D01*
X57022450Y-157925295D01*
X56863700Y-158084045D01*
X56819188Y-158084045D01*
X56755442Y-157929769D01*
X56522000Y-157695919D01*
X56216837Y-157569205D01*
X55886412Y-157568916D01*
X55581029Y-157695098D01*
X55347179Y-157928540D01*
X55220465Y-158233703D01*
X55220176Y-158564128D01*
X50456000Y-158564128D01*
X50456000Y-152035670D01*
X51166480Y-152035670D01*
X51166480Y-152875720D01*
X51263153Y-153109109D01*
X51441782Y-153287737D01*
X51675171Y-153384410D01*
X52765410Y-153384410D01*
X52924160Y-153225660D01*
X52924160Y-151876920D01*
X53178160Y-151876920D01*
X53178160Y-153225660D01*
X53336910Y-153384410D01*
X54427149Y-153384410D01*
X54660538Y-153287737D01*
X54839167Y-153109109D01*
X54935840Y-152875720D01*
X54935840Y-152035670D01*
X56665580Y-152035670D01*
X56665580Y-152875720D01*
X56762253Y-153109109D01*
X56940882Y-153287737D01*
X57174271Y-153384410D01*
X58264510Y-153384410D01*
X58423260Y-153225660D01*
X58423260Y-151876920D01*
X58677260Y-151876920D01*
X58677260Y-153225660D01*
X58836010Y-153384410D01*
X59926249Y-153384410D01*
X60159638Y-153287737D01*
X60338267Y-153109109D01*
X60434940Y-152875720D01*
X60434940Y-152035670D01*
X60276190Y-151876920D01*
X58677260Y-151876920D01*
X58423260Y-151876920D01*
X56824330Y-151876920D01*
X56665580Y-152035670D01*
X54935840Y-152035670D01*
X54777090Y-151876920D01*
X53178160Y-151876920D01*
X52924160Y-151876920D01*
X51325230Y-151876920D01*
X51166480Y-152035670D01*
X50456000Y-152035670D01*
X50456000Y-150844911D01*
X50490438Y-150671776D01*
X50563073Y-150563072D01*
X50671777Y-150490438D01*
X50844911Y-150456000D01*
X51236118Y-150456000D01*
X51166480Y-150624120D01*
G36*
X74328224Y-150490438D02*
X74436928Y-150563073D01*
X74509562Y-150671777D01*
X74544000Y-150844911D01*
X74544000Y-152073000D01*
X69135000Y-152073000D01*
X69135000Y-152035750D01*
X68976250Y-151877000D01*
X67627000Y-151877000D01*
X67627000Y-151897000D01*
X67373000Y-151897000D01*
X67373000Y-151877000D01*
X67353000Y-151877000D01*
X67353000Y-151623000D01*
X67373000Y-151623000D01*
X67373000Y-151603000D01*
X67627000Y-151603000D01*
X67627000Y-151623000D01*
X68976250Y-151623000D01*
X69135000Y-151464250D01*
X69135000Y-150823690D01*
X69038327Y-150590301D01*
X68904025Y-150456000D01*
X74155089Y-150456000D01*
X74328224Y-150490438D01*
X74328224Y-150490438D01*
G37*
X74328224Y-150490438D02*
X74436928Y-150563073D01*
X74509562Y-150671777D01*
X74544000Y-150844911D01*
X74544000Y-152073000D01*
X69135000Y-152073000D01*
X69135000Y-152035750D01*
X68976250Y-151877000D01*
X67627000Y-151877000D01*
X67627000Y-151897000D01*
X67373000Y-151897000D01*
X67373000Y-151877000D01*
X67353000Y-151877000D01*
X67353000Y-151623000D01*
X67373000Y-151623000D01*
X67373000Y-151603000D01*
X67627000Y-151603000D01*
X67627000Y-151623000D01*
X68976250Y-151623000D01*
X69135000Y-151464250D01*
X69135000Y-150823690D01*
X69038327Y-150590301D01*
X68904025Y-150456000D01*
X74155089Y-150456000D01*
X74328224Y-150490438D01*
G36*
X66727000Y-155123000D02*
X66747000Y-155123000D01*
X66747000Y-155373000D01*
X66453000Y-155373000D01*
X66453000Y-155123000D01*
X66473000Y-155123000D01*
X66473000Y-155103000D01*
X66727000Y-155103000D01*
X66727000Y-155123000D01*
X66727000Y-155123000D01*
G37*
X66727000Y-155123000D02*
X66747000Y-155123000D01*
X66747000Y-155373000D01*
X66453000Y-155373000D01*
X66453000Y-155123000D01*
X66473000Y-155123000D01*
X66473000Y-155103000D01*
X66727000Y-155103000D01*
X66727000Y-155123000D01*
G36*
X69127000Y-154823000D02*
X69147000Y-154823000D01*
X69147000Y-155077000D01*
X69127000Y-155077000D01*
X69127000Y-155097000D01*
X68873000Y-155097000D01*
X68873000Y-155077000D01*
X68853000Y-155077000D01*
X68853000Y-154823000D01*
X68873000Y-154823000D01*
X68873000Y-154803000D01*
X69127000Y-154803000D01*
X69127000Y-154823000D01*
X69127000Y-154823000D01*
G37*
X69127000Y-154823000D02*
X69147000Y-154823000D01*
X69147000Y-155077000D01*
X69127000Y-155077000D01*
X69127000Y-155097000D01*
X68873000Y-155097000D01*
X68873000Y-155077000D01*
X68853000Y-155077000D01*
X68853000Y-154823000D01*
X68873000Y-154823000D01*
X68873000Y-154803000D01*
X69127000Y-154803000D01*
X69127000Y-154823000D01*
G36*
X61865000Y-151464250D02*
X62023750Y-151623000D01*
X63373000Y-151623000D01*
X63373000Y-151603000D01*
X63627000Y-151603000D01*
X63627000Y-151623000D01*
X63647000Y-151623000D01*
X63647000Y-151877000D01*
X63627000Y-151877000D01*
X63627000Y-153026250D01*
X63785750Y-153185000D01*
X64626309Y-153185000D01*
X64859698Y-153088327D01*
X64971026Y-152977000D01*
X70449000Y-152977000D01*
X70449000Y-153364250D01*
X70607750Y-153523000D01*
X71973000Y-153523000D01*
X71973000Y-153503000D01*
X72227000Y-153503000D01*
X72227000Y-153523000D01*
X72247000Y-153523000D01*
X72247000Y-153673000D01*
X64950000Y-153673000D01*
X64900590Y-153683006D01*
X64858965Y-153711447D01*
X64831685Y-153753841D01*
X64823000Y-153800000D01*
X64823000Y-154290000D01*
X64685750Y-154290000D01*
X64527000Y-154448750D01*
X64527000Y-155123000D01*
X64547000Y-155123000D01*
X64547000Y-155377000D01*
X64527000Y-155377000D01*
X64527000Y-155397000D01*
X64273000Y-155397000D01*
X64273000Y-155377000D01*
X64253000Y-155377000D01*
X64253000Y-155123000D01*
X64273000Y-155123000D01*
X64273000Y-154448750D01*
X64114250Y-154290000D01*
X63777000Y-154290000D01*
X63777000Y-153800000D01*
X63766994Y-153750590D01*
X63738553Y-153708965D01*
X63696159Y-153681685D01*
X63650000Y-153673000D01*
X61627000Y-153673000D01*
X61627000Y-152035750D01*
X61865000Y-152035750D01*
X61865000Y-152676310D01*
X61961673Y-152909699D01*
X62140302Y-153088327D01*
X62373691Y-153185000D01*
X63214250Y-153185000D01*
X63373000Y-153026250D01*
X63373000Y-151877000D01*
X62023750Y-151877000D01*
X61865000Y-152035750D01*
X61627000Y-152035750D01*
X61627000Y-150827000D01*
X61865000Y-150827000D01*
X61865000Y-151464250D01*
X61865000Y-151464250D01*
G37*
X61865000Y-151464250D02*
X62023750Y-151623000D01*
X63373000Y-151623000D01*
X63373000Y-151603000D01*
X63627000Y-151603000D01*
X63627000Y-151623000D01*
X63647000Y-151623000D01*
X63647000Y-151877000D01*
X63627000Y-151877000D01*
X63627000Y-153026250D01*
X63785750Y-153185000D01*
X64626309Y-153185000D01*
X64859698Y-153088327D01*
X64971026Y-152977000D01*
X70449000Y-152977000D01*
X70449000Y-153364250D01*
X70607750Y-153523000D01*
X71973000Y-153523000D01*
X71973000Y-153503000D01*
X72227000Y-153503000D01*
X72227000Y-153523000D01*
X72247000Y-153523000D01*
X72247000Y-153673000D01*
X64950000Y-153673000D01*
X64900590Y-153683006D01*
X64858965Y-153711447D01*
X64831685Y-153753841D01*
X64823000Y-153800000D01*
X64823000Y-154290000D01*
X64685750Y-154290000D01*
X64527000Y-154448750D01*
X64527000Y-155123000D01*
X64547000Y-155123000D01*
X64547000Y-155377000D01*
X64527000Y-155377000D01*
X64527000Y-155397000D01*
X64273000Y-155397000D01*
X64273000Y-155377000D01*
X64253000Y-155377000D01*
X64253000Y-155123000D01*
X64273000Y-155123000D01*
X64273000Y-154448750D01*
X64114250Y-154290000D01*
X63777000Y-154290000D01*
X63777000Y-153800000D01*
X63766994Y-153750590D01*
X63738553Y-153708965D01*
X63696159Y-153681685D01*
X63650000Y-153673000D01*
X61627000Y-153673000D01*
X61627000Y-152035750D01*
X61865000Y-152035750D01*
X61865000Y-152676310D01*
X61961673Y-152909699D01*
X62140302Y-153088327D01*
X62373691Y-153185000D01*
X63214250Y-153185000D01*
X63373000Y-153026250D01*
X63373000Y-151877000D01*
X62023750Y-151877000D01*
X61865000Y-152035750D01*
X61627000Y-152035750D01*
X61627000Y-150827000D01*
X61865000Y-150827000D01*
X61865000Y-151464250D01*
M02*
