G04 #@! TF.FileFunction,Copper,L2,Bot,Signal*
%FSLAX46Y46*%
G04 Gerber Fmt 4.6, Leading zero omitted, Abs format (unit mm)*
G04 Created by KiCad (PCBNEW 4.0.3-stable) date 09/08/16 09:52:24*
%MOMM*%
%LPD*%
G01*
G04 APERTURE LIST*
%ADD10C,0.100000*%
%ADD11R,2.032000X1.727200*%
%ADD12O,2.032000X1.727200*%
%ADD13C,0.685800*%
%ADD14C,0.254000*%
G04 APERTURE END LIST*
D10*
D11*
X72100000Y-153650000D03*
D12*
X72100000Y-156190000D03*
X72100000Y-158730000D03*
D13*
X72490000Y-151350000D03*
X71220000Y-151350000D03*
X73760000Y-151350000D03*
X52670000Y-156200000D03*
X53930000Y-156200000D03*
X53930000Y-157470000D03*
X52680000Y-157470000D03*
X53930000Y-154930000D03*
X52660000Y-154930000D03*
X55200000Y-154930000D03*
X55200000Y-157470000D03*
X55200000Y-156200000D03*
X69950000Y-151350000D03*
D14*
X69950000Y-151350000D02*
X67350000Y-151350000D01*
X62500000Y-156200000D02*
X55200000Y-156200000D01*
X67350000Y-151350000D02*
X62500000Y-156200000D01*
X72100000Y-156190000D02*
X73910000Y-156190000D01*
X73760000Y-151350000D02*
X69950000Y-151350000D01*
X74200000Y-151790000D02*
X73760000Y-151350000D01*
X74200000Y-155900000D02*
X74200000Y-151790000D01*
X73910000Y-156190000D02*
X74200000Y-155900000D01*
G36*
X74407510Y-150299029D02*
X74583426Y-150416574D01*
X74700971Y-150592490D01*
X74747200Y-150824901D01*
X74747200Y-161575099D01*
X74700971Y-161807510D01*
X74583426Y-161983426D01*
X74407510Y-162100971D01*
X74175099Y-162147200D01*
X50824901Y-162147200D01*
X50592490Y-162100971D01*
X50416574Y-161983426D01*
X50299029Y-161807510D01*
X50252800Y-161575099D01*
X50252800Y-158544007D01*
X55321793Y-158544007D01*
X55432540Y-158812035D01*
X55637427Y-159017279D01*
X55905261Y-159128494D01*
X56195267Y-159128747D01*
X56463295Y-159018000D01*
X56668539Y-158813113D01*
X56779754Y-158545279D01*
X56780007Y-158255273D01*
X56669260Y-157987245D01*
X56464373Y-157782001D01*
X56196539Y-157670786D01*
X55906533Y-157670533D01*
X55638505Y-157781280D01*
X55433261Y-157986167D01*
X55322046Y-158254001D01*
X55321793Y-158544007D01*
X50252800Y-158544007D01*
X50252800Y-156549026D01*
X70492642Y-156549026D01*
X70495291Y-156564791D01*
X70749268Y-157092036D01*
X71185680Y-157481954D01*
X71458243Y-157577296D01*
X71443943Y-157580140D01*
X71040166Y-157849935D01*
X70770371Y-158253712D01*
X70675631Y-158730000D01*
X70770371Y-159206288D01*
X71040166Y-159610065D01*
X71443943Y-159879860D01*
X71920231Y-159974600D01*
X72279769Y-159974600D01*
X72756057Y-159879860D01*
X73159834Y-159610065D01*
X73429629Y-159206288D01*
X73524369Y-158730000D01*
X73429629Y-158253712D01*
X73159834Y-157849935D01*
X72756057Y-157580140D01*
X72741757Y-157577296D01*
X73014320Y-157481954D01*
X73450732Y-157092036D01*
X73704709Y-156564791D01*
X73707358Y-156549026D01*
X73586217Y-156317000D01*
X72227000Y-156317000D01*
X72227000Y-156337000D01*
X71973000Y-156337000D01*
X71973000Y-156317000D01*
X70613783Y-156317000D01*
X70492642Y-156549026D01*
X50252800Y-156549026D01*
X50252800Y-155830974D01*
X70492642Y-155830974D01*
X70613783Y-156063000D01*
X71973000Y-156063000D01*
X71973000Y-156043000D01*
X72227000Y-156043000D01*
X72227000Y-156063000D01*
X73586217Y-156063000D01*
X73707358Y-155830974D01*
X73704709Y-155815209D01*
X73450732Y-155287964D01*
X73018817Y-154902064D01*
X73116000Y-154902064D01*
X73257190Y-154875497D01*
X73386865Y-154792054D01*
X73473859Y-154664734D01*
X73504464Y-154513600D01*
X73504464Y-152786400D01*
X73477897Y-152645210D01*
X73394454Y-152515535D01*
X73267134Y-152428541D01*
X73116000Y-152397936D01*
X71084000Y-152397936D01*
X70942810Y-152424503D01*
X70813135Y-152507946D01*
X70726141Y-152635266D01*
X70695536Y-152786400D01*
X70695536Y-154513600D01*
X70722103Y-154654790D01*
X70805546Y-154784465D01*
X70932866Y-154871459D01*
X71084000Y-154902064D01*
X71181183Y-154902064D01*
X70749268Y-155287964D01*
X70495291Y-155815209D01*
X70492642Y-155830974D01*
X50252800Y-155830974D01*
X50252800Y-154144727D01*
X55321793Y-154144727D01*
X55432540Y-154412755D01*
X55637427Y-154617999D01*
X55905261Y-154729214D01*
X56195267Y-154729467D01*
X56463295Y-154618720D01*
X56668539Y-154413833D01*
X56779754Y-154145999D01*
X56780007Y-153855993D01*
X56669260Y-153587965D01*
X56464373Y-153382721D01*
X56196539Y-153271506D01*
X55906533Y-153271253D01*
X55638505Y-153382000D01*
X55433261Y-153586887D01*
X55322046Y-153854721D01*
X55321793Y-154144727D01*
X50252800Y-154144727D01*
X50252800Y-150824901D01*
X50299029Y-150592490D01*
X50416574Y-150416574D01*
X50592490Y-150299029D01*
X50824901Y-150252800D01*
X74175099Y-150252800D01*
X74407510Y-150299029D01*
X74407510Y-150299029D01*
G37*
X74407510Y-150299029D02*
X74583426Y-150416574D01*
X74700971Y-150592490D01*
X74747200Y-150824901D01*
X74747200Y-161575099D01*
X74700971Y-161807510D01*
X74583426Y-161983426D01*
X74407510Y-162100971D01*
X74175099Y-162147200D01*
X50824901Y-162147200D01*
X50592490Y-162100971D01*
X50416574Y-161983426D01*
X50299029Y-161807510D01*
X50252800Y-161575099D01*
X50252800Y-158544007D01*
X55321793Y-158544007D01*
X55432540Y-158812035D01*
X55637427Y-159017279D01*
X55905261Y-159128494D01*
X56195267Y-159128747D01*
X56463295Y-159018000D01*
X56668539Y-158813113D01*
X56779754Y-158545279D01*
X56780007Y-158255273D01*
X56669260Y-157987245D01*
X56464373Y-157782001D01*
X56196539Y-157670786D01*
X55906533Y-157670533D01*
X55638505Y-157781280D01*
X55433261Y-157986167D01*
X55322046Y-158254001D01*
X55321793Y-158544007D01*
X50252800Y-158544007D01*
X50252800Y-156549026D01*
X70492642Y-156549026D01*
X70495291Y-156564791D01*
X70749268Y-157092036D01*
X71185680Y-157481954D01*
X71458243Y-157577296D01*
X71443943Y-157580140D01*
X71040166Y-157849935D01*
X70770371Y-158253712D01*
X70675631Y-158730000D01*
X70770371Y-159206288D01*
X71040166Y-159610065D01*
X71443943Y-159879860D01*
X71920231Y-159974600D01*
X72279769Y-159974600D01*
X72756057Y-159879860D01*
X73159834Y-159610065D01*
X73429629Y-159206288D01*
X73524369Y-158730000D01*
X73429629Y-158253712D01*
X73159834Y-157849935D01*
X72756057Y-157580140D01*
X72741757Y-157577296D01*
X73014320Y-157481954D01*
X73450732Y-157092036D01*
X73704709Y-156564791D01*
X73707358Y-156549026D01*
X73586217Y-156317000D01*
X72227000Y-156317000D01*
X72227000Y-156337000D01*
X71973000Y-156337000D01*
X71973000Y-156317000D01*
X70613783Y-156317000D01*
X70492642Y-156549026D01*
X50252800Y-156549026D01*
X50252800Y-155830974D01*
X70492642Y-155830974D01*
X70613783Y-156063000D01*
X71973000Y-156063000D01*
X71973000Y-156043000D01*
X72227000Y-156043000D01*
X72227000Y-156063000D01*
X73586217Y-156063000D01*
X73707358Y-155830974D01*
X73704709Y-155815209D01*
X73450732Y-155287964D01*
X73018817Y-154902064D01*
X73116000Y-154902064D01*
X73257190Y-154875497D01*
X73386865Y-154792054D01*
X73473859Y-154664734D01*
X73504464Y-154513600D01*
X73504464Y-152786400D01*
X73477897Y-152645210D01*
X73394454Y-152515535D01*
X73267134Y-152428541D01*
X73116000Y-152397936D01*
X71084000Y-152397936D01*
X70942810Y-152424503D01*
X70813135Y-152507946D01*
X70726141Y-152635266D01*
X70695536Y-152786400D01*
X70695536Y-154513600D01*
X70722103Y-154654790D01*
X70805546Y-154784465D01*
X70932866Y-154871459D01*
X71084000Y-154902064D01*
X71181183Y-154902064D01*
X70749268Y-155287964D01*
X70495291Y-155815209D01*
X70492642Y-155830974D01*
X50252800Y-155830974D01*
X50252800Y-154144727D01*
X55321793Y-154144727D01*
X55432540Y-154412755D01*
X55637427Y-154617999D01*
X55905261Y-154729214D01*
X56195267Y-154729467D01*
X56463295Y-154618720D01*
X56668539Y-154413833D01*
X56779754Y-154145999D01*
X56780007Y-153855993D01*
X56669260Y-153587965D01*
X56464373Y-153382721D01*
X56196539Y-153271506D01*
X55906533Y-153271253D01*
X55638505Y-153382000D01*
X55433261Y-153586887D01*
X55322046Y-153854721D01*
X55321793Y-154144727D01*
X50252800Y-154144727D01*
X50252800Y-150824901D01*
X50299029Y-150592490D01*
X50416574Y-150416574D01*
X50592490Y-150299029D01*
X50824901Y-150252800D01*
X74175099Y-150252800D01*
X74407510Y-150299029D01*
M02*
