G04 #@! TF.FileFunction,Copper,L2,Bot,Signal*
%FSLAX46Y46*%
G04 Gerber Fmt 4.6, Leading zero omitted, Abs format (unit mm)*
G04 Created by KiCad (PCBNEW 4.0.3-stable) date 09/19/16 10:20:18*
%MOMM*%
%LPD*%
G01*
G04 APERTURE LIST*
%ADD10C,0.100000*%
%ADD11R,2.032000X1.727200*%
%ADD12O,2.032000X1.727200*%
%ADD13R,2.200000X1.200000*%
%ADD14R,1.400000X1.600000*%
%ADD15R,1.600000X0.700000*%
%ADD16C,0.685800*%
%ADD17C,0.254000*%
G04 APERTURE END LIST*
D10*
D11*
X72100000Y-153650000D03*
D12*
X72100000Y-156190000D03*
X72100000Y-158730000D03*
D13*
X55630000Y-148250000D03*
X55630000Y-163750000D03*
D14*
X65230000Y-149150000D03*
X65230000Y-163950000D03*
D15*
X65730000Y-153750000D03*
X65730000Y-154850000D03*
X65730000Y-155950000D03*
X65730000Y-157050000D03*
X65730000Y-158150000D03*
X65730000Y-159250000D03*
X65730000Y-160350000D03*
X65730000Y-161450000D03*
X65730000Y-162550000D03*
D16*
X72490000Y-151350000D03*
X71220000Y-151350000D03*
X72490000Y-148810000D03*
X72490000Y-150080000D03*
X53930000Y-156200000D03*
X53930000Y-154930000D03*
X52670000Y-156200000D03*
X55200000Y-157470000D03*
X53930000Y-157470000D03*
X73760000Y-150080000D03*
X73760000Y-148810000D03*
X71220000Y-150080000D03*
X71220000Y-148810000D03*
X69950000Y-150080000D03*
X69950000Y-148810000D03*
X55200000Y-156200000D03*
X73760000Y-151350000D03*
X69950000Y-151350000D03*
X52680000Y-157470000D03*
X55200000Y-154930000D03*
X52660000Y-154930000D03*
D17*
X69950000Y-151350000D02*
X65420000Y-151350000D01*
X60570000Y-156200000D02*
X55200000Y-156200000D01*
X65420000Y-151350000D02*
X60570000Y-156200000D01*
X73760000Y-151350000D02*
X69950000Y-151350000D01*
X74200000Y-151790000D02*
X73760000Y-151350000D01*
X74200000Y-155900000D02*
X74200000Y-151790000D01*
X72100000Y-156190000D02*
X73910000Y-156190000D01*
X73910000Y-156190000D02*
X74200000Y-155900000D01*
G36*
X54141536Y-148850000D02*
X54168103Y-148991190D01*
X54251546Y-149120865D01*
X54378866Y-149207859D01*
X54530000Y-149238464D01*
X56730000Y-149238464D01*
X56871190Y-149211897D01*
X57000865Y-149128454D01*
X57087859Y-149001134D01*
X57118464Y-148850000D01*
X57118464Y-148350000D01*
X64141536Y-148350000D01*
X64141536Y-149950000D01*
X64168103Y-150091190D01*
X64251546Y-150220865D01*
X64378866Y-150307859D01*
X64530000Y-150338464D01*
X65930000Y-150338464D01*
X66071190Y-150311897D01*
X66200865Y-150228454D01*
X66287859Y-150101134D01*
X66318464Y-149950000D01*
X66318464Y-148350000D01*
X66291897Y-148208810D01*
X66208454Y-148079135D01*
X66081134Y-147992141D01*
X65930000Y-147961536D01*
X64530000Y-147961536D01*
X64388810Y-147988103D01*
X64259135Y-148071546D01*
X64172141Y-148198866D01*
X64141536Y-148350000D01*
X57118464Y-148350000D01*
X57118464Y-147656000D01*
X74155089Y-147656000D01*
X74328224Y-147690438D01*
X74436928Y-147763073D01*
X74509562Y-147871777D01*
X74544000Y-148044911D01*
X74544000Y-164355089D01*
X74509562Y-164528223D01*
X74436928Y-164636927D01*
X74328224Y-164709562D01*
X74155089Y-164744000D01*
X66318464Y-164744000D01*
X66318464Y-163288464D01*
X66530000Y-163288464D01*
X66671190Y-163261897D01*
X66800865Y-163178454D01*
X66887859Y-163051134D01*
X66918464Y-162900000D01*
X66918464Y-162200000D01*
X66891897Y-162058810D01*
X66854256Y-162000314D01*
X66887859Y-161951134D01*
X66918464Y-161800000D01*
X66918464Y-161100000D01*
X66891897Y-160958810D01*
X66854256Y-160900314D01*
X66887859Y-160851134D01*
X66918464Y-160700000D01*
X66918464Y-160000000D01*
X66891897Y-159858810D01*
X66854256Y-159800314D01*
X66887859Y-159751134D01*
X66918464Y-159600000D01*
X66918464Y-158900000D01*
X66891897Y-158758810D01*
X66854256Y-158700314D01*
X66887859Y-158651134D01*
X66918464Y-158500000D01*
X66918464Y-157800000D01*
X66891897Y-157658810D01*
X66854256Y-157600314D01*
X66887859Y-157551134D01*
X66918464Y-157400000D01*
X66918464Y-156700000D01*
X66891897Y-156558810D01*
X66885602Y-156549026D01*
X70492642Y-156549026D01*
X70495291Y-156564791D01*
X70749268Y-157092036D01*
X71185680Y-157481954D01*
X71458243Y-157577296D01*
X71443943Y-157580140D01*
X71040166Y-157849935D01*
X70770371Y-158253712D01*
X70675631Y-158730000D01*
X70770371Y-159206288D01*
X71040166Y-159610065D01*
X71443943Y-159879860D01*
X71920231Y-159974600D01*
X72279769Y-159974600D01*
X72756057Y-159879860D01*
X73159834Y-159610065D01*
X73429629Y-159206288D01*
X73524369Y-158730000D01*
X73429629Y-158253712D01*
X73159834Y-157849935D01*
X72756057Y-157580140D01*
X72741757Y-157577296D01*
X73014320Y-157481954D01*
X73450732Y-157092036D01*
X73704709Y-156564791D01*
X73707358Y-156549026D01*
X73586217Y-156317000D01*
X72227000Y-156317000D01*
X72227000Y-156337000D01*
X71973000Y-156337000D01*
X71973000Y-156317000D01*
X70613783Y-156317000D01*
X70492642Y-156549026D01*
X66885602Y-156549026D01*
X66854256Y-156500314D01*
X66887859Y-156451134D01*
X66918464Y-156300000D01*
X66918464Y-155830974D01*
X70492642Y-155830974D01*
X70613783Y-156063000D01*
X71973000Y-156063000D01*
X71973000Y-156043000D01*
X72227000Y-156043000D01*
X72227000Y-156063000D01*
X73586217Y-156063000D01*
X73707358Y-155830974D01*
X73704709Y-155815209D01*
X73450732Y-155287964D01*
X73018817Y-154902064D01*
X73116000Y-154902064D01*
X73257190Y-154875497D01*
X73386865Y-154792054D01*
X73473859Y-154664734D01*
X73504464Y-154513600D01*
X73504464Y-152786400D01*
X73477897Y-152645210D01*
X73394454Y-152515535D01*
X73267134Y-152428541D01*
X73116000Y-152397936D01*
X71084000Y-152397936D01*
X70942810Y-152424503D01*
X70813135Y-152507946D01*
X70726141Y-152635266D01*
X70695536Y-152786400D01*
X70695536Y-154513600D01*
X70722103Y-154654790D01*
X70805546Y-154784465D01*
X70932866Y-154871459D01*
X71084000Y-154902064D01*
X71181183Y-154902064D01*
X70749268Y-155287964D01*
X70495291Y-155815209D01*
X70492642Y-155830974D01*
X66918464Y-155830974D01*
X66918464Y-155600000D01*
X66891897Y-155458810D01*
X66854256Y-155400314D01*
X66887859Y-155351134D01*
X66918464Y-155200000D01*
X66918464Y-154500000D01*
X66891897Y-154358810D01*
X66854256Y-154300314D01*
X66887859Y-154251134D01*
X66918464Y-154100000D01*
X66918464Y-153400000D01*
X66891897Y-153258810D01*
X66808454Y-153129135D01*
X66681134Y-153042141D01*
X66530000Y-153011536D01*
X64930000Y-153011536D01*
X64788810Y-153038103D01*
X64659135Y-153121546D01*
X64572141Y-153248866D01*
X64541536Y-153400000D01*
X64541536Y-154100000D01*
X64568103Y-154241190D01*
X64605744Y-154299686D01*
X64572141Y-154348866D01*
X64541536Y-154500000D01*
X64541536Y-155200000D01*
X64568103Y-155341190D01*
X64605744Y-155399686D01*
X64572141Y-155448866D01*
X64541536Y-155600000D01*
X64541536Y-156300000D01*
X64568103Y-156441190D01*
X64605744Y-156499686D01*
X64572141Y-156548866D01*
X64541536Y-156700000D01*
X64541536Y-157400000D01*
X64568103Y-157541190D01*
X64605744Y-157599686D01*
X64572141Y-157648866D01*
X64541536Y-157800000D01*
X64541536Y-158500000D01*
X64568103Y-158641190D01*
X64605744Y-158699686D01*
X64572141Y-158748866D01*
X64541536Y-158900000D01*
X64541536Y-159600000D01*
X64568103Y-159741190D01*
X64605744Y-159799686D01*
X64572141Y-159848866D01*
X64541536Y-160000000D01*
X64541536Y-160700000D01*
X64568103Y-160841190D01*
X64605744Y-160899686D01*
X64572141Y-160948866D01*
X64541536Y-161100000D01*
X64541536Y-161800000D01*
X64568103Y-161941190D01*
X64605744Y-161999686D01*
X64572141Y-162048866D01*
X64541536Y-162200000D01*
X64541536Y-162761536D01*
X64530000Y-162761536D01*
X64388810Y-162788103D01*
X64259135Y-162871546D01*
X64172141Y-162998866D01*
X64141536Y-163150000D01*
X64141536Y-164744000D01*
X50844911Y-164744000D01*
X50671777Y-164709562D01*
X50563073Y-164636928D01*
X50490438Y-164528224D01*
X50456000Y-164355089D01*
X50456000Y-163150000D01*
X54141536Y-163150000D01*
X54141536Y-164350000D01*
X54168103Y-164491190D01*
X54251546Y-164620865D01*
X54378866Y-164707859D01*
X54530000Y-164738464D01*
X56730000Y-164738464D01*
X56871190Y-164711897D01*
X57000865Y-164628454D01*
X57087859Y-164501134D01*
X57118464Y-164350000D01*
X57118464Y-163150000D01*
X57091897Y-163008810D01*
X57008454Y-162879135D01*
X56881134Y-162792141D01*
X56730000Y-162761536D01*
X54530000Y-162761536D01*
X54388810Y-162788103D01*
X54259135Y-162871546D01*
X54172141Y-162998866D01*
X54141536Y-163150000D01*
X50456000Y-163150000D01*
X50456000Y-161114571D01*
X54398856Y-161114571D01*
X54525102Y-161420109D01*
X54758662Y-161654077D01*
X55063979Y-161780855D01*
X55394571Y-161781144D01*
X55700109Y-161654898D01*
X55934077Y-161421338D01*
X56060855Y-161116021D01*
X56061144Y-160785429D01*
X55934898Y-160479891D01*
X55701338Y-160245923D01*
X55396021Y-160119145D01*
X55065429Y-160118856D01*
X54759891Y-160245102D01*
X54525923Y-160478662D01*
X54399145Y-160783979D01*
X54398856Y-161114571D01*
X50456000Y-161114571D01*
X50456000Y-158564128D01*
X55220176Y-158564128D01*
X55346358Y-158869511D01*
X55579800Y-159103361D01*
X55884963Y-159230075D01*
X56215388Y-159230364D01*
X56520771Y-159104182D01*
X56754621Y-158870740D01*
X56881335Y-158565577D01*
X56881624Y-158235152D01*
X56755442Y-157929769D01*
X56522000Y-157695919D01*
X56216837Y-157569205D01*
X55886412Y-157568916D01*
X55581029Y-157695098D01*
X55347179Y-157928540D01*
X55220465Y-158233703D01*
X55220176Y-158564128D01*
X50456000Y-158564128D01*
X50456000Y-153114571D01*
X54398856Y-153114571D01*
X54525102Y-153420109D01*
X54758662Y-153654077D01*
X55063979Y-153780855D01*
X55242643Y-153781011D01*
X55220465Y-153834423D01*
X55220176Y-154164848D01*
X55346358Y-154470231D01*
X55579800Y-154704081D01*
X55884963Y-154830795D01*
X56215388Y-154831084D01*
X56520771Y-154704902D01*
X56754621Y-154471460D01*
X56881335Y-154166297D01*
X56881624Y-153835872D01*
X56755442Y-153530489D01*
X56522000Y-153296639D01*
X56216837Y-153169925D01*
X56038537Y-153169769D01*
X56060855Y-153116021D01*
X56061144Y-152785429D01*
X55934898Y-152479891D01*
X55701338Y-152245923D01*
X55396021Y-152119145D01*
X55065429Y-152118856D01*
X54759891Y-152245102D01*
X54525923Y-152478662D01*
X54399145Y-152783979D01*
X54398856Y-153114571D01*
X50456000Y-153114571D01*
X50456000Y-148044911D01*
X50490438Y-147871776D01*
X50563073Y-147763072D01*
X50671777Y-147690438D01*
X50844911Y-147656000D01*
X54141536Y-147656000D01*
X54141536Y-148850000D01*
X54141536Y-148850000D01*
G37*
X54141536Y-148850000D02*
X54168103Y-148991190D01*
X54251546Y-149120865D01*
X54378866Y-149207859D01*
X54530000Y-149238464D01*
X56730000Y-149238464D01*
X56871190Y-149211897D01*
X57000865Y-149128454D01*
X57087859Y-149001134D01*
X57118464Y-148850000D01*
X57118464Y-148350000D01*
X64141536Y-148350000D01*
X64141536Y-149950000D01*
X64168103Y-150091190D01*
X64251546Y-150220865D01*
X64378866Y-150307859D01*
X64530000Y-150338464D01*
X65930000Y-150338464D01*
X66071190Y-150311897D01*
X66200865Y-150228454D01*
X66287859Y-150101134D01*
X66318464Y-149950000D01*
X66318464Y-148350000D01*
X66291897Y-148208810D01*
X66208454Y-148079135D01*
X66081134Y-147992141D01*
X65930000Y-147961536D01*
X64530000Y-147961536D01*
X64388810Y-147988103D01*
X64259135Y-148071546D01*
X64172141Y-148198866D01*
X64141536Y-148350000D01*
X57118464Y-148350000D01*
X57118464Y-147656000D01*
X74155089Y-147656000D01*
X74328224Y-147690438D01*
X74436928Y-147763073D01*
X74509562Y-147871777D01*
X74544000Y-148044911D01*
X74544000Y-164355089D01*
X74509562Y-164528223D01*
X74436928Y-164636927D01*
X74328224Y-164709562D01*
X74155089Y-164744000D01*
X66318464Y-164744000D01*
X66318464Y-163288464D01*
X66530000Y-163288464D01*
X66671190Y-163261897D01*
X66800865Y-163178454D01*
X66887859Y-163051134D01*
X66918464Y-162900000D01*
X66918464Y-162200000D01*
X66891897Y-162058810D01*
X66854256Y-162000314D01*
X66887859Y-161951134D01*
X66918464Y-161800000D01*
X66918464Y-161100000D01*
X66891897Y-160958810D01*
X66854256Y-160900314D01*
X66887859Y-160851134D01*
X66918464Y-160700000D01*
X66918464Y-160000000D01*
X66891897Y-159858810D01*
X66854256Y-159800314D01*
X66887859Y-159751134D01*
X66918464Y-159600000D01*
X66918464Y-158900000D01*
X66891897Y-158758810D01*
X66854256Y-158700314D01*
X66887859Y-158651134D01*
X66918464Y-158500000D01*
X66918464Y-157800000D01*
X66891897Y-157658810D01*
X66854256Y-157600314D01*
X66887859Y-157551134D01*
X66918464Y-157400000D01*
X66918464Y-156700000D01*
X66891897Y-156558810D01*
X66885602Y-156549026D01*
X70492642Y-156549026D01*
X70495291Y-156564791D01*
X70749268Y-157092036D01*
X71185680Y-157481954D01*
X71458243Y-157577296D01*
X71443943Y-157580140D01*
X71040166Y-157849935D01*
X70770371Y-158253712D01*
X70675631Y-158730000D01*
X70770371Y-159206288D01*
X71040166Y-159610065D01*
X71443943Y-159879860D01*
X71920231Y-159974600D01*
X72279769Y-159974600D01*
X72756057Y-159879860D01*
X73159834Y-159610065D01*
X73429629Y-159206288D01*
X73524369Y-158730000D01*
X73429629Y-158253712D01*
X73159834Y-157849935D01*
X72756057Y-157580140D01*
X72741757Y-157577296D01*
X73014320Y-157481954D01*
X73450732Y-157092036D01*
X73704709Y-156564791D01*
X73707358Y-156549026D01*
X73586217Y-156317000D01*
X72227000Y-156317000D01*
X72227000Y-156337000D01*
X71973000Y-156337000D01*
X71973000Y-156317000D01*
X70613783Y-156317000D01*
X70492642Y-156549026D01*
X66885602Y-156549026D01*
X66854256Y-156500314D01*
X66887859Y-156451134D01*
X66918464Y-156300000D01*
X66918464Y-155830974D01*
X70492642Y-155830974D01*
X70613783Y-156063000D01*
X71973000Y-156063000D01*
X71973000Y-156043000D01*
X72227000Y-156043000D01*
X72227000Y-156063000D01*
X73586217Y-156063000D01*
X73707358Y-155830974D01*
X73704709Y-155815209D01*
X73450732Y-155287964D01*
X73018817Y-154902064D01*
X73116000Y-154902064D01*
X73257190Y-154875497D01*
X73386865Y-154792054D01*
X73473859Y-154664734D01*
X73504464Y-154513600D01*
X73504464Y-152786400D01*
X73477897Y-152645210D01*
X73394454Y-152515535D01*
X73267134Y-152428541D01*
X73116000Y-152397936D01*
X71084000Y-152397936D01*
X70942810Y-152424503D01*
X70813135Y-152507946D01*
X70726141Y-152635266D01*
X70695536Y-152786400D01*
X70695536Y-154513600D01*
X70722103Y-154654790D01*
X70805546Y-154784465D01*
X70932866Y-154871459D01*
X71084000Y-154902064D01*
X71181183Y-154902064D01*
X70749268Y-155287964D01*
X70495291Y-155815209D01*
X70492642Y-155830974D01*
X66918464Y-155830974D01*
X66918464Y-155600000D01*
X66891897Y-155458810D01*
X66854256Y-155400314D01*
X66887859Y-155351134D01*
X66918464Y-155200000D01*
X66918464Y-154500000D01*
X66891897Y-154358810D01*
X66854256Y-154300314D01*
X66887859Y-154251134D01*
X66918464Y-154100000D01*
X66918464Y-153400000D01*
X66891897Y-153258810D01*
X66808454Y-153129135D01*
X66681134Y-153042141D01*
X66530000Y-153011536D01*
X64930000Y-153011536D01*
X64788810Y-153038103D01*
X64659135Y-153121546D01*
X64572141Y-153248866D01*
X64541536Y-153400000D01*
X64541536Y-154100000D01*
X64568103Y-154241190D01*
X64605744Y-154299686D01*
X64572141Y-154348866D01*
X64541536Y-154500000D01*
X64541536Y-155200000D01*
X64568103Y-155341190D01*
X64605744Y-155399686D01*
X64572141Y-155448866D01*
X64541536Y-155600000D01*
X64541536Y-156300000D01*
X64568103Y-156441190D01*
X64605744Y-156499686D01*
X64572141Y-156548866D01*
X64541536Y-156700000D01*
X64541536Y-157400000D01*
X64568103Y-157541190D01*
X64605744Y-157599686D01*
X64572141Y-157648866D01*
X64541536Y-157800000D01*
X64541536Y-158500000D01*
X64568103Y-158641190D01*
X64605744Y-158699686D01*
X64572141Y-158748866D01*
X64541536Y-158900000D01*
X64541536Y-159600000D01*
X64568103Y-159741190D01*
X64605744Y-159799686D01*
X64572141Y-159848866D01*
X64541536Y-160000000D01*
X64541536Y-160700000D01*
X64568103Y-160841190D01*
X64605744Y-160899686D01*
X64572141Y-160948866D01*
X64541536Y-161100000D01*
X64541536Y-161800000D01*
X64568103Y-161941190D01*
X64605744Y-161999686D01*
X64572141Y-162048866D01*
X64541536Y-162200000D01*
X64541536Y-162761536D01*
X64530000Y-162761536D01*
X64388810Y-162788103D01*
X64259135Y-162871546D01*
X64172141Y-162998866D01*
X64141536Y-163150000D01*
X64141536Y-164744000D01*
X50844911Y-164744000D01*
X50671777Y-164709562D01*
X50563073Y-164636928D01*
X50490438Y-164528224D01*
X50456000Y-164355089D01*
X50456000Y-163150000D01*
X54141536Y-163150000D01*
X54141536Y-164350000D01*
X54168103Y-164491190D01*
X54251546Y-164620865D01*
X54378866Y-164707859D01*
X54530000Y-164738464D01*
X56730000Y-164738464D01*
X56871190Y-164711897D01*
X57000865Y-164628454D01*
X57087859Y-164501134D01*
X57118464Y-164350000D01*
X57118464Y-163150000D01*
X57091897Y-163008810D01*
X57008454Y-162879135D01*
X56881134Y-162792141D01*
X56730000Y-162761536D01*
X54530000Y-162761536D01*
X54388810Y-162788103D01*
X54259135Y-162871546D01*
X54172141Y-162998866D01*
X54141536Y-163150000D01*
X50456000Y-163150000D01*
X50456000Y-161114571D01*
X54398856Y-161114571D01*
X54525102Y-161420109D01*
X54758662Y-161654077D01*
X55063979Y-161780855D01*
X55394571Y-161781144D01*
X55700109Y-161654898D01*
X55934077Y-161421338D01*
X56060855Y-161116021D01*
X56061144Y-160785429D01*
X55934898Y-160479891D01*
X55701338Y-160245923D01*
X55396021Y-160119145D01*
X55065429Y-160118856D01*
X54759891Y-160245102D01*
X54525923Y-160478662D01*
X54399145Y-160783979D01*
X54398856Y-161114571D01*
X50456000Y-161114571D01*
X50456000Y-158564128D01*
X55220176Y-158564128D01*
X55346358Y-158869511D01*
X55579800Y-159103361D01*
X55884963Y-159230075D01*
X56215388Y-159230364D01*
X56520771Y-159104182D01*
X56754621Y-158870740D01*
X56881335Y-158565577D01*
X56881624Y-158235152D01*
X56755442Y-157929769D01*
X56522000Y-157695919D01*
X56216837Y-157569205D01*
X55886412Y-157568916D01*
X55581029Y-157695098D01*
X55347179Y-157928540D01*
X55220465Y-158233703D01*
X55220176Y-158564128D01*
X50456000Y-158564128D01*
X50456000Y-153114571D01*
X54398856Y-153114571D01*
X54525102Y-153420109D01*
X54758662Y-153654077D01*
X55063979Y-153780855D01*
X55242643Y-153781011D01*
X55220465Y-153834423D01*
X55220176Y-154164848D01*
X55346358Y-154470231D01*
X55579800Y-154704081D01*
X55884963Y-154830795D01*
X56215388Y-154831084D01*
X56520771Y-154704902D01*
X56754621Y-154471460D01*
X56881335Y-154166297D01*
X56881624Y-153835872D01*
X56755442Y-153530489D01*
X56522000Y-153296639D01*
X56216837Y-153169925D01*
X56038537Y-153169769D01*
X56060855Y-153116021D01*
X56061144Y-152785429D01*
X55934898Y-152479891D01*
X55701338Y-152245923D01*
X55396021Y-152119145D01*
X55065429Y-152118856D01*
X54759891Y-152245102D01*
X54525923Y-152478662D01*
X54399145Y-152783979D01*
X54398856Y-153114571D01*
X50456000Y-153114571D01*
X50456000Y-148044911D01*
X50490438Y-147871776D01*
X50563073Y-147763072D01*
X50671777Y-147690438D01*
X50844911Y-147656000D01*
X54141536Y-147656000D01*
X54141536Y-148850000D01*
M02*
